<?xml version="1.0" standalone="no"?>
<!DOCTYPE svg PUBLIC "-//W3C//DTD SVG 1.1//EN" "http://www.w3.org/Graphics/SVG/1.1/DTD/svg11.dtd" >
<svg>
<metadata>
Created by FontForge 20120731 at Wed Nov 19 10:52:38 2014
 By Orthosie Webhosting
Copyright (c) www.lineto.com. All rights reserved.
</metadata>
<defs>
<font id="CircularRegular" horiz-adv-x="1079" >
  <font-face 
    font-family="CircularRegular"
    font-weight="400"
    font-stretch="normal"
    units-per-em="2048"
    panose-1="2 0 5 3 0 0 0 2 0 3"
    ascent="1638"
    descent="-410"
    x-height="985"
    cap-height="1452"
    bbox="-80 -444 2316 1802"
    underline-thickness="102"
    underline-position="-102"
    unicode-range="U+0020-FB04"
  />
<missing-glyph horiz-adv-x="512" 
 />
    <glyph glyph-name=".notdef" horiz-adv-x="512" 
 />
    <glyph glyph-name=".null" horiz-adv-x="0" 
 />
    <glyph glyph-name="nonmarkingreturn" horiz-adv-x="682" 
 />
    <glyph glyph-name="space" unicode=" " horiz-adv-x="512" 
 />
    <glyph glyph-name="exclam" unicode="!" horiz-adv-x="567" 
d="M154 119q0 55 36.5 93t92.5 38q55 0 93 -38t38 -93t-38 -92t-93 -37t-92 37t-37 92zM166 1450h233l-47 -1034h-137z" />
    <glyph glyph-name="quotedbl" unicode="&#x22;" horiz-adv-x="663" 
d="M72 1452h217l-47 -436h-123zM375 1452h217l-47 -436h-123z" />
    <glyph glyph-name="numbersign" unicode="#" horiz-adv-x="1374" 
d="M92 414v166h217l66 311h-219v166h256l84 395h180l-84 -395h330l84 395h180l-84 -395h180v-166h-217l-66 -311h220v-166h-256l-89 -414h-180l88 414h-329l-88 -414h-181l88 414h-180zM489 580h330l66 311h-330z" />
    <glyph glyph-name="dollar" unicode="$" horiz-adv-x="1148" 
d="M53 381l199 61q4 -49 21.5 -97t47 -87t74.5 -66.5t105 -37.5v428l-49 10q-160 33 -252.5 127t-92.5 246q0 74 29 140t81 118.5t125 87.5t159 45v213h159v-215q94 -12 162 -47t113 -82t70.5 -101.5t37.5 -103.5l-184 -70q-4 31 -18.5 64t-39 63.5t-59 56t-82.5 37.5v-419
l35 -9q170 -37 266.5 -139t96.5 -239q0 -70 -25.5 -135.5t-76 -119t-124 -89t-172.5 -48.5v-213h-159v213q-106 10 -186.5 50t-135.5 96.5t-86 125t-39 136.5zM311 973q0 -66 40 -114t138 -71l11 -2v390q-90 -16 -139.5 -72.5t-49.5 -130.5zM659 154q100 18 147.5 73.5
t47.5 126.5q0 66 -48 118t-147 75v-393z" />
    <glyph glyph-name="percent" unicode="%" horiz-adv-x="1691" 
d="M51 1137q0 72 27.5 133t75 107t110 72t131.5 26q70 0 132.5 -26t109.5 -72t74.5 -107.5t27.5 -132.5q0 -72 -27.5 -133.5t-74.5 -107.5t-109.5 -71.5t-132.5 -25.5t-132 25.5t-109.5 71.5t-75 107.5t-27.5 133.5zM223 1137q0 -78 49.5 -127t122.5 -49q74 0 123 49t49 127
t-49 127t-123 49t-123 -49t-49 -127zM229 0l1006 1452h199l-1006 -1452h-199zM911 313q0 72 28 133.5t75 107.5t109.5 71.5t131.5 25.5q70 0 132.5 -25.5t109.5 -71.5t74.5 -107.5t27.5 -133.5t-27.5 -133t-74.5 -107t-109.5 -72t-132.5 -26t-132 26t-109 72t-75 107
t-28 133zM1083 313q0 -78 49.5 -127t122.5 -49q74 0 123 49.5t49 126.5q0 78 -49 127t-123 49t-123 -49t-49 -127z" />
    <glyph glyph-name="ampersand" unicode="&#x26;" horiz-adv-x="1406" 
d="M115 360q-2 131 66.5 224.5t189.5 181.5l26 18l-37 41q-27 29 -55.5 63t-52 73.5t-37.5 84t-14 93.5q0 86 32.5 149.5t85 106.5t119 65.5t133.5 22.5q76 0 144.5 -21.5t121 -65.5t84 -108.5t31.5 -148.5q0 -55 -18.5 -101.5t-48 -86.5t-67.5 -72.5t-77 -61.5l-65 -49
l297 -313l342 352v-264l-217 -219l309 -324h-268l-176 184q-96 -98 -201 -152.5t-221 -54.5q-92 0 -170 29t-134.5 80t-89 121.5t-32.5 152.5zM319 381q0 -92 61.5 -157.5t168.5 -65.5q84 0 153.5 46t135.5 113l-316 336l-71 -53q-63 -47 -97.5 -100t-34.5 -119zM403 1141
q2 -55 31 -101.5t60 -78.5l59 -64l68 49q78 55 103.5 104.5t25.5 98.5q0 39 -15.5 69.5t-40 51t-56.5 31t-65 10.5q-29 0 -59.5 -9.5t-55 -30t-40 -53t-15.5 -77.5z" />
    <glyph glyph-name="quotesingle" unicode="'" horiz-adv-x="360" 
d="M72 1452h217l-47 -436h-123z" />
    <glyph glyph-name="parenleft" unicode="(" horiz-adv-x="577" 
d="M102 649q0 154 26 292t72 260t108.5 227.5t137.5 195.5l121 -94q-143 -188 -220 -402.5t-77 -478.5t77 -478t220 -402l-121 -95q-76 90 -138 195.5t-108 227.5t-72 260t-26 292z" />
    <glyph glyph-name="parenright" unicode=")" horiz-adv-x="577" 
d="M10 -231q143 188 220 402t77 478t-76.5 478t-220.5 403l121 94q76 -90 138.5 -195.5t108.5 -227.5t71.5 -260t25.5 -292t-25.5 -292t-71.5 -260t-108.5 -227.5t-138.5 -195.5z" />
    <glyph glyph-name="asterisk" unicode="*" horiz-adv-x="862" 
d="M51 1110l55 164l263 -113l-27 291h176l-26 -291l266 113l53 -164l-281 -68l195 -213l-143 -104l-150 244l-149 -244l-142 104l193 213z" />
    <glyph glyph-name="plus" unicode="+" horiz-adv-x="1038" 
d="M51 508v162h383v399h168v-399h385v-162h-385v-404h-168v404h-383z" />
    <glyph glyph-name="comma" unicode="," horiz-adv-x="589" 
d="M143 131q0 55 42 96t106 41q68 0 117 -47t49 -153q0 -102 -29 -174t-73 -119t-98 -70.5t-103 -30.5v107q39 6 69.5 27.5t53 52t35 67.5t12.5 74q-4 -4 -16.5 -7t-28.5 -3q-55 0 -95.5 36.5t-40.5 102.5z" />
    <glyph glyph-name="hyphen" unicode="-" horiz-adv-x="759" 
d="M102 504v168h555v-168h-555z" />
    <glyph glyph-name="period" unicode="." horiz-adv-x="571" 
d="M143 131q0 59 41 101t101 42q59 0 101 -42t42 -101t-42 -100t-101 -41t-100.5 41t-41.5 100z" />
    <glyph glyph-name="slash" unicode="/" horiz-adv-x="888" 
d="M0 0l702 1452h187l-703 -1452h-186z" />
    <glyph glyph-name="zero" unicode="0" horiz-adv-x="1245" 
d="M113 664q0 137 23.5 264t86.5 225q63 96 168 150.5t230 54.5q129 0 233 -54.5t166 -150.5q66 -98 88 -225t25 -264q-2 -135 -25 -264.5t-88 -227.5q-61 -96 -165.5 -150.5t-233.5 -54.5q-125 0 -229.5 54.5t-168.5 150.5q-63 98 -86.5 227.5t-23.5 264.5zM311 664
q0 -76 8.5 -166t40 -169t93 -131.5t168.5 -52.5q106 0 168.5 52.5t93 131.5t39 169t8.5 166t-8.5 167t-39 169.5t-93 131t-168.5 52.5t-168 -52.5t-93.5 -131t-40 -169.5t-8.5 -167z" />
    <glyph glyph-name="one" unicode="1" horiz-adv-x="921" 
d="M117 0v180h305v774h-291v133q139 4 214 68t97 172h176v-1147h304v-180h-805z" />
    <glyph glyph-name="two" unicode="2" horiz-adv-x="1148" 
d="M117 0q2 82 19.5 153.5t55 137t97 124t143.5 113.5l221 144q94 59 138.5 128.5t44.5 147.5q0 45 -15.5 88t-46.5 76t-78 53.5t-110 20.5q-131 0 -193.5 -80t-62.5 -197q0 -14 1 -28.5t3 -30.5h-197q-6 39 -6 78q0 86 31 163.5t89 137t144 94.5t195 35q106 0 190 -33
t141.5 -88t87 -130t29.5 -157q0 -131 -67.5 -234.5t-182.5 -174.5l-262 -168q-57 -37 -102 -81t-59 -106h698v-186h-946z" />
    <glyph glyph-name="three" unicode="3" horiz-adv-x="1148" 
d="M86 385l201 45q6 -135 89 -212t206 -77q68 0 120 20.5t87.5 55.5t54 81t18.5 95q-2 92 -46 148.5t-110.5 82t-142.5 21.5t-139 -33l-96 148l440 383h-631v184h897v-180l-391 -344q78 0 153.5 -26.5t135 -79t96.5 -128t37 -174.5q0 -84 -34 -160.5t-96.5 -136
t-151.5 -95.5t-199 -36q-115 0 -206 35t-153.5 93.5t-98.5 133t-40 156.5z" />
    <glyph glyph-name="four" unicode="4" horiz-adv-x="1155" 
d="M51 272v238l586 817h260v-872h227v-183h-227v-272h-195v272h-651zM229 455h473v663z" />
    <glyph glyph-name="five" unicode="5" horiz-adv-x="1112" 
d="M61 360l193 58q10 -123 92 -199t207 -76q59 0 111.5 18.5t90.5 52.5t60.5 84t22.5 114q0 68 -23.5 120t-62.5 88.5t-91.5 55t-109.5 18.5q-72 0 -135.5 -29.5t-106.5 -74.5q-53 20 -99 39.5t-97 38.5l172 659h700v-184h-567l-105 -400q29 33 67 54.5t78 34t81 17.5t77 5
q80 0 156 -27.5t136.5 -83t96 -135.5t35.5 -184q0 -94 -34.5 -177t-98 -145.5t-153.5 -98.5t-201 -36q-106 0 -193.5 32t-152 86t-102.5 125.5t-44 149.5z" />
    <glyph glyph-name="six" unicode="6" horiz-adv-x="1185" 
d="M102 567q0 180 50.5 326.5t142.5 250t222 159t290 55.5q61 0 121.5 -12.5t120.5 -40.5l-45 -162q-41 20 -100.5 31.5t-110.5 11.5q-115 0 -204 -42t-150.5 -114t-95.5 -166t-38 -200q14 37 45 74.5t78 68.5t109.5 49t140.5 18q90 0 169 -30.5t138 -89t94 -142.5t35 -190
q0 -104 -41 -188t-108.5 -142.5t-156.5 -90.5t-187 -32t-191.5 35t-166.5 108.5t-117 186t-44 268.5zM332 422q0 -66 24.5 -117t65.5 -87t92 -55.5t107 -19.5q59 0 111 18.5t92 54.5t63.5 88t23.5 118q0 68 -23.5 120t-63.5 88t-93 55.5t-110 19.5t-109.5 -19.5t-92.5 -55.5
t-63.5 -88t-23.5 -120z" />
    <glyph glyph-name="seven" unicode="7" horiz-adv-x="968" 
d="M0 1143v184h969v-192q-47 -37 -131 -120t-172 -221.5t-161 -334t-97 -459.5h-207q10 143 39.5 269t69.5 233.5t88 196.5t98 161q113 166 252 283h-748z" />
    <glyph glyph-name="eight" unicode="8" horiz-adv-x="1153" 
d="M92 346q0 115 73 207t208 127q-113 33 -176.5 119t-63.5 190q0 82 34 150.5t93 117t140 75t178 26.5q94 0 175 -26.5t140 -75t93 -117t34 -150.5q0 -104 -63.5 -190t-176.5 -119q135 -35 208 -127t73 -207q0 -82 -33 -151.5t-94.5 -119.5t-151.5 -79t-204 -29
q-117 0 -207 29t-151.5 79t-94.5 119.5t-33 151.5zM295 365q0 -104 73.5 -167t209.5 -63q133 0 206.5 62.5t73.5 167.5q0 98 -74.5 164.5t-205.5 66.5q-133 0 -208 -66.5t-75 -164.5zM334 981q0 -98 66.5 -158.5t177.5 -62.5q109 2 175 62.5t66 158.5q0 92 -63.5 153.5
t-177.5 61.5q-117 0 -180.5 -61.5t-63.5 -153.5z" />
    <glyph glyph-name="nine" unicode="9" horiz-adv-x="1189" 
d="M82 899q0 104 41 189.5t108.5 144.5t155.5 92t184 33q98 0 190.5 -36t165 -110.5t116.5 -189.5t44 -274q0 -178 -40.5 -322.5t-123.5 -246t-207 -157t-292 -55.5q-31 0 -72 5t-82 15.5t-76.5 25t-60.5 32.5l49 164q25 -16 55.5 -28.5t63.5 -21.5t65.5 -13.5t57.5 -4.5
q125 0 212 40t142.5 108.5t81 159t25.5 192.5q-16 -35 -46 -69.5t-74 -61.5t-102.5 -43t-132.5 -16q-86 0 -166.5 28.5t-143 86t-100.5 140t-38 193.5zM285 903q0 -68 23.5 -120t63.5 -89t91 -55t108 -18q55 0 106.5 19t91.5 56t64.5 89.5t24.5 117.5q0 63 -24.5 115.5
t-64.5 89.5t-91 57.5t-107 20.5q-55 0 -107 -19.5t-92 -56.5t-63.5 -89t-23.5 -118z" />
    <glyph glyph-name="colon" unicode=":" horiz-adv-x="587" 
d="M154 856q0 59 38.5 99t98.5 40q59 0 100 -40t41 -99t-41 -99t-100 -40t-98 40t-39 99zM156 129q0 59 38.5 99t98.5 40q59 0 100 -40t41 -99t-41 -99t-100 -40t-98 40t-39 99z" />
    <glyph glyph-name="semicolon" unicode=";" horiz-adv-x="608" 
d="M154 129q0 53 41 93t100 40q66 0 113 -45t47 -147q0 -98 -28 -167t-71 -115t-94 -68.5t-98 -28.5v102q74 14 118 77.5t46 135.5q-4 -4 -15.5 -7t-27.5 -3q-53 0 -92 35t-39 98zM162 856q0 59 39 99t98 40t100 -40t41 -99t-41 -99t-100 -40t-98 40t-39 99z" />
    <glyph glyph-name="less" unicode="&#x3c;" horiz-adv-x="987" 
d="M72 500v174l843 422v-195l-634 -313l634 -314v-194z" />
    <glyph glyph-name="equal" unicode="=" horiz-adv-x="1132" 
d="M92 309v162h948v-162h-948zM92 709v157h948v-157h-948z" />
    <glyph glyph-name="greater" unicode="&#x3e;" horiz-adv-x="987" 
d="M72 80v194l639 314l-639 313v195l843 -422v-174z" />
    <glyph glyph-name="question" unicode="?" horiz-adv-x="1003" 
d="M51 1063q0 70 26.5 144.5t82 136t140.5 100.5t204 39q106 0 190 -35t141.5 -92.5t87 -132t29.5 -152.5q0 -123 -59 -209t-150 -147l-94 -64q-53 -37 -74.5 -100.5t-13.5 -134.5h-180q-2 18 -2 35v36q0 104 40 180t130 140l90 61q109 78 109 201q0 45 -15.5 87t-45.5 75
t-76 52.5t-107 19.5q-68 0 -116 -23t-78.5 -59.5t-46 -83.5t-15.5 -97q0 -27 4 -55.5t10 -44.5l-199 25q-12 43 -12 98zM342 119q0 55 37 93t92 38t93 -38t38 -93t-38 -92t-93 -37t-92 37t-37 92z" />
    <glyph glyph-name="at" unicode="@" horiz-adv-x="1650" 
d="M72 682q0 178 63.5 325.5t172 253t253 164t305.5 58.5q156 0 290 -51.5t232.5 -140.5t154.5 -212t56 -266q0 -115 -30.5 -212t-83.5 -169t-124 -111.5t-151 -39.5q-72 0 -129 31.5t-73 99.5q-47 -66 -113 -101t-131 -35q-70 0 -127 25t-99 71t-64.5 110.5t-22.5 144.5
q0 102 32.5 190t89 151.5t130 99.5t157.5 36q33 0 67 -8.5t63.5 -24.5t53 -41.5t35.5 -60.5l19 108h162l-111 -514q-6 -31 -6 -57q0 -35 17.5 -59.5t60.5 -24.5t82.5 31.5t70.5 86t49.5 124t18.5 147.5q0 113 -41 208t-116 164.5t-181.5 109.5t-235.5 40q-135 0 -249.5 -47
t-199.5 -133t-132 -206t-47 -267q0 -135 44 -250t128 -199t204.5 -131t274.5 -47q113 0 220.5 35t199.5 109q35 -41 51 -63.5t24 -33.5q8 -12 9 -14q-45 -43 -104.5 -77t-126 -57.5t-137.5 -35.5t-136 -12q-180 0 -330.5 56t-259 158.5t-169 246t-60.5 317.5zM618 649
q-4 -94 37 -158.5t138 -64.5q51 0 95 24.5t75.5 68.5t50 105.5t20.5 133.5q0 92 -44 142t-128 50q-55 0 -100 -25.5t-76 -67.5t-48.5 -96.5t-19.5 -111.5z" />
    <glyph glyph-name="A" unicode="A" horiz-adv-x="1363" 
d="M0 0l573 1452h215l576 -1452h-217l-148 385h-639l-145 -385h-215zM430 571h498l-250 652z" />
    <glyph glyph-name="B" unicode="B" horiz-adv-x="1222" 
d="M184 0v1452h486q102 0 181 -29.5t133 -82t83 -124t29 -157.5q0 -117 -60.5 -198t-156.5 -116q61 -16 110 -49.5t83 -80t51.5 -102.5t17.5 -118q0 -86 -31 -158.5t-88 -125t-138 -82t-182 -29.5h-518zM385 176h285q123 0 194.5 62.5t71.5 169.5q0 104 -64.5 170.5
t-189.5 66.5h-297v-469zM385 817h250q123 0 190.5 64.5t67.5 167.5q0 104 -67.5 165.5t-190.5 61.5h-250v-459z" />
    <glyph glyph-name="C" unicode="C" horiz-adv-x="1515" 
d="M92 727q0 182 61.5 322.5t163 236.5t231.5 146.5t265 50.5q125 0 229.5 -33t186.5 -92.5t138 -145.5t85 -190l-186 -66q-41 166 -157 254t-296 88q-98 0 -191.5 -35.5t-166 -106.5t-115.5 -178.5t-43 -250.5t43 -250.5t115.5 -179.5t166 -107.5t191.5 -35.5
q90 0 166 26.5t134 72.5t99 110.5t64 138.5l178 -66q-29 -102 -87 -188t-140 -147.5t-186.5 -96.5t-227.5 -35q-141 0 -271 50.5t-229.5 146.5t-160 237.5t-60.5 323.5z" />
    <glyph glyph-name="D" unicode="D" horiz-adv-x="1474" 
d="M184 0v1452h508q137 0 263 -47t220.5 -139t150.5 -228.5t56 -314.5t-56 -313.5t-152.5 -226.5t-222.5 -137t-263 -46h-504zM385 178h297q100 0 190.5 34t158 101.5t106.5 170t39 239.5t-39 240.5t-105.5 172t-156 103.5t-189.5 35h-301v-1096z" />
    <glyph glyph-name="E" unicode="E" horiz-adv-x="1148" 
d="M184 0v1452h883v-186h-682v-447h619v-188h-619v-445h682v-186h-883z" />
    <glyph glyph-name="F" unicode="F" horiz-adv-x="1118" 
d="M184 0v1452h883v-186h-682v-467h619v-189h-619v-610h-201z" />
    <glyph glyph-name="G" unicode="G" horiz-adv-x="1566" 
d="M92 727q0 184 61.5 325.5t163 236.5t230.5 144.5t264 49.5q117 0 220.5 -32t186 -89t144 -138t92.5 -180l-182 -77q-49 158 -170 244.5t-291 86.5q-98 0 -190.5 -34.5t-164 -105.5t-115.5 -178.5t-44 -252.5t42 -253.5t112.5 -180.5t162 -106.5t189.5 -34.5
q121 0 205 37.5t137 95t77.5 124t28.5 121.5h-503v181h694v-711h-166l-14 190q-25 -41 -68 -80.5t-101.5 -70.5t-133 -50.5t-162.5 -19.5q-137 0 -264 49.5t-225.5 145.5t-157 237.5t-58.5 325.5z" />
    <glyph glyph-name="H" unicode="H" horiz-adv-x="1511" 
d="M184 0v1452h201v-621h741v621h201v-1452h-201v645h-741v-645h-201z" />
    <glyph glyph-name="I" unicode="I" horiz-adv-x="573" 
d="M184 0v1452h205v-1452h-205z" />
    <glyph glyph-name="J" unicode="J" horiz-adv-x="1093" 
d="M41 432v94l201 45v-137q0 -145 69.5 -211.5t180.5 -66.5t174 68.5t63 195.5v1032h201v-1018q0 -96 -30 -180t-87 -147.5t-138 -100.5t-181 -37q-106 0 -190.5 33t-143 94.5t-89 146.5t-30.5 189z" />
    <glyph glyph-name="K" unicode="K" horiz-adv-x="1337" 
d="M184 0v1452h201v-747l680 747h264l-606 -647l614 -805h-254l-493 664l-205 -220v-444h-201z" />
    <glyph glyph-name="L" unicode="L" horiz-adv-x="1101" 
d="M184 0v1452h201v-1266h686v-186h-887z" />
    <glyph glyph-name="M" unicode="M" horiz-adv-x="1937" 
d="M184 0v1452h273l512 -1182l516 1182h268v-1452h-199v1130l-495 -1130h-185l-491 1130v-1130h-199z" />
    <glyph glyph-name="N" unicode="N" horiz-adv-x="1562" 
d="M184 0v1452h269l725 -1114v1114h200v-1452h-209l-784 1184v-1184h-201z" />
    <glyph glyph-name="O" unicode="O" horiz-adv-x="1642" 
d="M92 727q0 182 62.5 322.5t165 236.5t233.5 146.5t268 50.5t268.5 -50.5t233.5 -146.5t164.5 -236.5t62.5 -322.5t-62.5 -323.5t-164.5 -237.5t-233.5 -146.5t-268.5 -50.5t-268 50.5t-233.5 146.5t-165 237.5t-62.5 323.5zM297 727q0 -143 44 -250.5t116.5 -179.5
t167 -107.5t196.5 -35.5q100 0 195.5 35.5t168 107.5t117 179.5t44.5 250.5t-44.5 250.5t-117 178.5t-167.5 106.5t-196 35.5q-102 0 -196.5 -35.5t-167 -106.5t-116.5 -178.5t-44 -250.5z" />
    <glyph glyph-name="P" unicode="P" horiz-adv-x="1212" 
d="M184 0v1452h512q100 0 185.5 -33t148 -89t97 -134t34.5 -170t-34.5 -170t-97 -134t-147.5 -88t-186 -32h-311v-602h-201zM385 782h295q131 0 203.5 64.5t72.5 177.5q0 117 -72.5 182.5t-203.5 65.5h-295v-490z" />
    <glyph glyph-name="Q" unicode="Q" horiz-adv-x="1642" 
d="M92 727q0 182 62.5 322.5t165 236.5t233.5 146.5t268 50.5t268.5 -50.5t233.5 -146.5t164.5 -236.5t62.5 -322.5q0 -174 -56 -307t-148 -230l170 -190l-138 -121l-176 195q-86 -53 -183 -79t-198 -26q-137 0 -268 50.5t-233.5 146.5t-165 237.5t-62.5 323.5zM297 727
q0 -143 44 -250.5t116.5 -179.5t167 -107.5t196.5 -35.5q139 0 254 63l-252 283l140 121l256 -287q59 72 93 169t34 224q0 143 -44.5 250.5t-117 178.5t-167.5 106.5t-196 35.5q-102 0 -196.5 -35.5t-167 -106.5t-116.5 -178.5t-44 -250.5z" />
    <glyph glyph-name="R" unicode="R" horiz-adv-x="1261" 
d="M184 0v1452h555q100 0 182.5 -34t139.5 -92t88 -137t31 -169q0 -152 -85 -260.5t-235 -145.5l309 -614h-231l-289 594h-262v-594h-203zM387 774h313q123 0 198 66.5t75 179.5q0 117 -75 184.5t-198 67.5h-313v-498z" />
    <glyph glyph-name="S" unicode="S" horiz-adv-x="1226" 
d="M92 406l197 61q6 -61 29.5 -118.5t66.5 -101.5t104.5 -70.5t143.5 -26.5q72 0 127 18t92 50t55.5 75t18.5 90q0 78 -54.5 141.5t-160.5 85.5l-207 45q-78 16 -144.5 50t-113.5 84.5t-74 117t-27 148.5q0 86 37 163.5t101.5 136t151.5 93.5t190 35q123 0 210 -35t145 -88
t90 -116.5t44 -123.5l-180 -76q-6 39 -25.5 85.5t-56.5 85t-92 64.5t-131 26q-61 0 -112.5 -18.5t-87.5 -51.5t-56.5 -77t-20.5 -93q0 -78 46 -135.5t141 -77.5l217 -47q178 -39 278.5 -147.5t100.5 -262.5q0 -80 -34 -156.5t-98.5 -137t-157.5 -96.5t-212 -36
q-131 0 -228.5 39t-164 101.5t-102.5 140.5t-46 156z" />
    <glyph glyph-name="T" unicode="T" horiz-adv-x="1191" 
d="M10 1266v186h1172v-186h-486v-1266h-200v1266h-486z" />
    <glyph glyph-name="U" unicode="U" horiz-adv-x="1392" 
d="M174 496v956h199v-950q0 -166 85 -256t238 -90q154 0 238 90t84 256v950h201v-956q0 -129 -40 -227.5t-111 -165t-166 -100.5t-206 -34t-206 34t-165.5 100.5t-110.5 165t-40 227.5z" />
    <glyph glyph-name="V" unicode="V" horiz-adv-x="1304" 
d="M0 1452h213l438 -1194l443 1194h211l-560 -1452h-198z" />
    <glyph glyph-name="W" unicode="W" horiz-adv-x="2015" 
d="M10 1452h207l320 -1137l364 1137h211l373 -1149l313 1149h207l-414 -1452h-207l-378 1178l-375 -1178h-201z" />
    <glyph glyph-name="X" unicode="X" horiz-adv-x="1222" 
d="M0 0l496 727l-492 725h242l366 -569l373 569h238l-494 -725l488 -727h-240l-367 567l-374 -567h-236z" />
    <glyph glyph-name="Y" unicode="Y" horiz-adv-x="1228" 
d="M0 1452h246l375 -647l374 647h234l-514 -827v-625h-201v625z" />
    <glyph glyph-name="Z" unicode="Z" horiz-adv-x="1277" 
d="M82 0v197l870 1069h-850v186h1094v-190l-874 -1074h884v-188h-1124z" />
    <glyph glyph-name="bracketleft" unicode="[" horiz-adv-x="589" 
d="M184 -303v1911h396v-156h-228v-1602h228v-153h-396z" />
    <glyph glyph-name="backslash" unicode="\" horiz-adv-x="888" 
d="M0 1452h190l699 -1452h-191z" />
    <glyph glyph-name="bracketright" unicode="]" horiz-adv-x="589" 
d="M10 -150h228v1602h-228v156h396v-1911h-396v153z" />
    <glyph glyph-name="asciicircum" unicode="^" horiz-adv-x="1067" 
d="M51 725l398 729h169l398 -729h-203l-278 528l-281 -528h-203z" />
    <glyph glyph-name="underscore" unicode="_" horiz-adv-x="1110" 
d="M31 0h1048v-162h-1048v162z" />
    <glyph glyph-name="grave" unicode="`" horiz-adv-x="557" 
d="M72 1411h237l178 -299h-159z" />
    <glyph glyph-name="a" unicode="a" 
d="M102 264q0 66 22.5 118t62.5 89t95.5 59.5t118.5 32.5l267 39q45 6 60 26.5t15 47.5q0 72 -51 124t-164 52q-102 0 -156.5 -56.5t-64.5 -142.5l-184 43q8 70 42 129.5t87 101.5t122.5 65.5t149.5 23.5q111 0 189 -30t128 -79t72.5 -114.5t22.5 -137.5v-493q0 -76 6 -119
q2 -25 6 -43h-188q-4 14 -6 35q-2 16 -3 40.5t-1 57.5q-16 -27 -43 -55.5t-66 -53t-91 -40t-118 -15.5q-76 0 -136 24.5t-103 64.5t-67 93.5t-24 112.5zM299 274q0 -55 43 -99t117 -44q59 0 111.5 15.5t90 49t60 90t22.5 136.5v45l-301 -45q-59 -10 -101 -46t-42 -102z" />
    <glyph glyph-name="b" unicode="b" horiz-adv-x="1214" 
d="M164 0v1452h190v-606q35 66 119 117t207 51q113 0 197 -40t141 -110.5t86 -165t29 -200.5q0 -111 -31 -206t-89.5 -166t-143.5 -112t-195 -41q-111 0 -192 45t-128 125v-143h-190zM352 498q0 -80 21.5 -145.5t60.5 -111.5t93.5 -71t117.5 -25q133 0 212 96.5t79 256.5
t-78 253t-213 93q-63 0 -117.5 -24.5t-93.5 -68.5t-60.5 -108.5t-21.5 -144.5z" />
    <glyph glyph-name="c" unicode="c" horiz-adv-x="1085" 
d="M82 494q0 113 38 209t104.5 165.5t157.5 108.5t196 39q98 0 172.5 -27.5t129 -73t87 -101.5t49.5 -112l-174 -73q-10 37 -28.5 73.5t-50.5 66.5t-77 49.5t-108 19.5q-59 0 -112.5 -22.5t-95.5 -65.5t-66.5 -107.5t-24.5 -148.5t24.5 -148.5t65.5 -108.5t96 -67t115 -23
q68 0 115.5 20.5t79.5 51.5t51.5 67t27.5 64l170 -74q-18 -53 -53 -107t-90.5 -99t-130 -73t-170.5 -28q-109 0 -200 40t-156.5 110.5t-103.5 167t-38 207.5z" />
    <glyph glyph-name="d" unicode="d" horiz-adv-x="1204" 
d="M82 496q0 104 34 197t95 164t147 113t191 42q66 0 116 -14.5t86.5 -38t61.5 -53t37 -60.5v606h190v-1452h-186v150q-35 -72 -111.5 -124.5t-193.5 -52.5q-109 0 -195 40t-146.5 111t-93 166t-32.5 206zM279 496q0 -76 19 -140.5t56 -111.5t90.5 -74t122.5 -27
q66 0 119 28t90 75t56.5 112.5t19.5 141.5q0 154 -75 248t-208 94q-66 0 -120 -25.5t-92 -72t-58 -109.5t-20 -139z" />
    <glyph glyph-name="e" unicode="e" horiz-adv-x="1099" 
d="M84 500q0 115 40 210t104.5 162.5t149.5 105.5t177 38q113 0 202 -38t148.5 -105.5t91 -163t31.5 -209.5q0 -14 -1 -24.5t-1 -18.5q-2 -8 -2 -19h-741q2 -66 25.5 -120t63.5 -94t93 -62.5t115 -22.5q119 0 182 57.5t92 141.5l168 -57q-20 -66 -61 -122.5t-98.5 -98.5
t-129 -66.5t-153.5 -24.5q-98 0 -188.5 36t-159 103.5t-108.5 166t-40 225.5zM289 594h538q-4 106 -72.5 179t-197.5 73q-61 0 -109.5 -21.5t-82 -57.5t-54 -81t-22.5 -92z" />
    <glyph glyph-name="f" unicode="f" horiz-adv-x="692" 
d="M41 811v174h176v111q0 80 25.5 147.5t72.5 114.5t116 73.5t155 26.5q33 0 51 -3t25 -3v-178q-16 4 -56 4q-41 0 -75.5 -7t-60.5 -27.5t-40 -56.5t-14 -93v-109h243v-174h-243v-811h-199v811h-176z" />
    <glyph glyph-name="g" unicode="g" horiz-adv-x="1193" 
d="M82 -53l186 43q6 -51 27.5 -96.5t56.5 -78t82 -52t103 -19.5q156 0 228.5 82t72.5 242v141q-35 -68 -113 -115t-188 -47q-98 0 -181.5 36t-143.5 98.5t-94 150.5t-34 192q0 100 33 187.5t92 152t142 102.5t186 38q102 0 179 -40t124 -116v137h190v-911
q0 -94 -24.5 -183.5t-83 -158t-152.5 -110.5t-233 -42q-92 0 -171 27.5t-139.5 77t-98.5 116t-46 146.5zM281 524q0 -145 76.5 -230t207.5 -85q125 0 203 86t78 229t-78 229.5t-203 86.5q-129 0 -206.5 -86.5t-77.5 -229.5z" />
    <glyph glyph-name="h" unicode="h" horiz-adv-x="1159" 
d="M164 0v1452h192v-602q53 88 136 126t167 38q88 0 155 -30t112 -82t67.5 -123.5t22.5 -153.5v-625h-193v592q0 51 -12 97t-40 80t-73 53q-41 18 -96 18h-12q-111 -4 -170.5 -77t-63.5 -183v-580h-192z" />
    <glyph glyph-name="i" unicode="i" horiz-adv-x="518" 
d="M123 1333q0 57 40 97t97 40t97 -39.5t40 -97.5q0 -57 -40 -97t-97 -40t-97 40t-40 97zM164 0v985h190v-985h-190z" />
    <glyph glyph-name="j" unicode="j" horiz-adv-x="520" 
d="M-31 -246q8 -2 19 -2q8 -2 18 -2h25q76 0 104.5 38t28.5 106v1091h192v-1100q0 -135 -71.5 -220t-200.5 -85q-55 0 -82 5t-33 9v160zM123 1333q0 57 40 97t97 40t97 -39.5t40 -97.5q0 -57 -40 -97t-97 -40t-97 40t-40 97z" />
    <glyph glyph-name="k" unicode="k" horiz-adv-x="1064" 
d="M164 0v1452h190v-905l434 438h267l-426 -420l436 -565h-246l-325 432l-140 -137v-295h-190z" />
    <glyph glyph-name="l" unicode="l" horiz-adv-x="520" 
d="M164 0v1452h192v-1452h-192z" />
    <glyph glyph-name="m" unicode="m" horiz-adv-x="1765" 
d="M164 0v985h184v-131q47 82 130 121t169 39q92 0 174 -46t123 -145q57 109 145.5 150t182.5 41q63 0 124.5 -22.5t109.5 -68.5t77 -117t29 -167v-639h-191v618q0 96 -50 161t-159 65q-102 0 -164.5 -71t-62.5 -177v-596h-192v618q0 96 -49.5 161t-159.5 65
q-104 0 -167 -69.5t-63 -180.5v-594h-190z" />
    <glyph glyph-name="n" unicode="n" horiz-adv-x="1159" 
d="M164 0v985h188v-141q53 92 137 131t170 39q88 0 155 -30t112 -82t67.5 -123.5t22.5 -153.5v-625h-193v592q0 51 -12 97t-40 80t-73 53q-41 18 -96 18h-12q-115 -4 -174.5 -81t-59.5 -190v-569h-192z" />
    <glyph glyph-name="o" unicode="o" horiz-adv-x="1171" 
d="M82 494q0 113 37 208t104.5 164.5t159.5 109.5t203 40t203 -40t159.5 -109.5t104.5 -165t37 -207.5q0 -113 -37 -209.5t-104.5 -166t-160 -109.5t-202.5 -40q-111 0 -203 40t-159.5 109.5t-104.5 166t-37 209.5zM279 494q0 -86 24.5 -152t67.5 -111t98 -67.5t117 -22.5
q61 0 116.5 22.5t98.5 67.5t67.5 111t24.5 152t-24.5 150.5t-67.5 109.5t-98.5 67.5t-116.5 22.5t-116.5 -22.5t-98.5 -67.5t-67.5 -109.5t-24.5 -150.5z" />
    <glyph glyph-name="p" unicode="p" horiz-adv-x="1214" 
d="M164 -389v1374h186v-154q41 74 125 125.5t205 51.5q111 0 196 -40t141 -110t86 -164t30 -200q0 -111 -31 -205t-90.5 -165t-144.5 -111t-193 -40q-115 0 -197 47.5t-123 112.5v-522h-190zM352 494q0 -76 20.5 -140.5t59.5 -110.5t93.5 -72t119.5 -26q68 0 121 26t91 72
t58.5 110.5t20.5 140.5q0 74 -20.5 136t-57.5 108t-91 73t-122 27q-66 0 -120 -27t-93 -73t-59.5 -108t-20.5 -136z" />
    <glyph glyph-name="q" unicode="q" horiz-adv-x="1210" 
d="M82 496q0 104 31.5 197t91 164t145.5 112t195 41q63 0 114.5 -15.5t91.5 -40t66.5 -56.5t42.5 -64v151h187v-1374h-191v528q-39 -76 -118 -121t-189 -45q-106 0 -192.5 41t-148 113t-94 166t-32.5 203zM279 496q0 -76 20 -140.5t58 -111.5t91.5 -74t118.5 -27
q66 0 119 27t92 74t59.5 111.5t20.5 140.5t-20.5 139t-59.5 108t-92 71t-119 26q-135 0 -211.5 -95t-76.5 -249z" />
    <glyph glyph-name="r" unicode="r" horiz-adv-x="731" 
d="M164 0v985h188v-172q33 70 78 110t94 58t99 19q10 0 19 1q38 0 69 -4v-211q-44 7 -85 7q-30 0 -58 -3q-65 -9 -111.5 -43t-73.5 -96.5t-27 -156.5v-494h-192z" />
    <glyph glyph-name="s" unicode="s" horiz-adv-x="929" 
d="M72 262l172 68q12 -80 72.5 -139.5t166.5 -59.5q92 0 138.5 41t46.5 94q0 47 -35 78t-96 45l-183 41q-119 27 -181 99.5t-62 175.5q0 61 25.5 117.5t72.5 99.5t113.5 68.5t148.5 25.5q100 0 170 -29t115 -69.5t67.5 -87t30.5 -80.5l-166 -68q-4 18 -16.5 48t-37 57.5
t-64.5 48t-99 20.5q-82 0 -129 -41t-47 -94q0 -88 113 -115l174 -39q135 -29 205.5 -104.5t70.5 -186.5q0 -51 -21.5 -105t-67.5 -99t-117.5 -74t-170.5 -29q-98 0 -171.5 29t-124 72t-79 94t-34.5 98z" />
    <glyph glyph-name="t" unicode="t" horiz-adv-x="706" 
d="M41 811v174h53q80 0 116 43t36 109v159h176v-311h213v-174h-213v-512q0 -68 30.5 -101.5t106.5 -33.5q12 0 25.5 1t23.5 3q12 2 27 4v-164q-14 -6 -35 -10q-16 -4 -40.5 -6t-55.5 -2q-127 0 -201 72.5t-74 207.5v541h-188z" />
    <glyph glyph-name="u" unicode="u" horiz-adv-x="1159" 
d="M154 356v629h192v-598q0 -51 11.5 -96t38 -79t67.5 -53.5t102 -19.5q117 0 177.5 75t60.5 187v584h192v-803q0 -37 1 -70.5t3 -58.5q2 -29 7 -53h-189q-4 16 -7 55t-3 84q-47 -92 -129 -131t-168 -39t-152.5 30t-111.5 82t-68.5 122.5t-23.5 152.5z" />
    <glyph glyph-name="v" unicode="v" horiz-adv-x="987" 
d="M0 985h219l279 -764l280 764h209l-393 -985h-195z" />
    <glyph glyph-name="w" unicode="w" horiz-adv-x="1583" 
d="M10 985h211l221 -741l256 741h199l256 -741l217 739h203l-320 -983h-198l-262 750l-256 -750h-203z" />
    <glyph glyph-name="x" unicode="x" horiz-adv-x="970" 
d="M0 0l369 502l-355 483h236l239 -348l238 348h229l-352 -483l367 -502h-238l-252 365l-250 -365h-231z" />
    <glyph glyph-name="y" unicode="y" horiz-adv-x="1034" 
d="M0 985h221l311 -684l295 684h207l-641 -1397h-211l246 521z" />
    <glyph glyph-name="z" unicode="z" horiz-adv-x="980" 
d="M92 0v164l541 647h-522v174h761v-164l-540 -647h557v-174h-797z" />
    <glyph glyph-name="braceleft" unicode="{" horiz-adv-x="722" 
d="M92 563v176q45 0 86 11.5t72 36t49 63.5t18 96v281q0 193 94.5 287t274.5 94h27v-154h-27q-115 0 -158 -51t-43 -164v-336q0 -104 -57 -168.5t-156 -83.5q98 -18 155.5 -82.5t57.5 -169.5v-333q0 -113 43 -164.5t158 -51.5h27v-153h-27q-180 0 -274.5 94t-94.5 287v278
q0 57 -18 96.5t-49 64t-72 35.5t-86 11z" />
    <glyph glyph-name="bar" unicode="|" horiz-adv-x="536" 
d="M184 -303v1911h168v-1911h-168z" />
    <glyph glyph-name="braceright" unicode="}" horiz-adv-x="722" 
d="M10 -150h27q115 0 158 51.5t43 164.5v333q0 104 57 169t156 83q-98 18 -155.5 83t-57.5 169v336q0 113 -43 164t-158 51h-27v154h27q180 0 274.5 -94.5t94.5 -286.5v-281q0 -57 18 -96t49 -63.5t72 -36t86 -11.5v-176q-45 0 -86 -11t-72 -35.5t-49 -63.5t-18 -97v-278
q0 -193 -94.5 -287t-274.5 -94h-27v153z" />
    <glyph glyph-name="asciitilde" unicode="~" horiz-adv-x="1214" 
d="M94 549q86 141 221.5 182t284.5 -41l94 -51q90 -49 173 -24.5t134 104.5l117 -94q-86 -141 -221 -179t-285 43l-94 52q-90 49 -169 21.5t-138 -107.5z" />
    <glyph glyph-name="uni00A0" unicode="&#xa0;" horiz-adv-x="512" 
 />
    <glyph glyph-name="exclamdown" unicode="&#xa1;" horiz-adv-x="567" 
d="M154 942q0 55 36.5 92t92.5 37q55 0 93 -37t38 -92t-38 -93t-93 -38t-92 38t-37 93zM166 -389l49 1034h137l47 -1034h-233z" />
    <glyph glyph-name="cent" unicode="&#xa2;" horiz-adv-x="1085" 
d="M82 725q0 98 28.5 183t81 151.5t123 112t156.5 63.5v217h156v-207q86 -8 152.5 -37.5t113.5 -72.5t77.5 -96.5t45.5 -104.5l-174 -74q-8 33 -24.5 65.5t-42 61.5t-62.5 50.5t-86 27.5v-684q53 8 93 29.5t66.5 51.5t43 61.5t24.5 58.5l170 -74q-16 -49 -49 -101.5
t-82 -95.5t-115.5 -72.5t-150.5 -35.5v-203h-156v211q-86 18 -157.5 65.5t-123 115t-80 152.5t-28.5 181zM279 725q0 -129 54 -211t138 -115v650q-82 -33 -137 -114t-55 -210z" />
    <glyph glyph-name="sterling" unicode="&#xa3;" horiz-adv-x="1185" 
d="M100 0v174q104 55 165 138t61 169q0 20 -2 40t-7 38h-204v166h149q-25 55 -46 114.5t-21 137.5q0 80 30.5 149.5t85 120.5t129 81t160.5 30q117 0 195.5 -34t128 -86t71 -115.5t25.5 -125.5l-201 -34q-2 115 -62.5 171t-152.5 56q-88 0 -148.5 -56.5t-60.5 -156.5
q0 -63 19.5 -119.5t42.5 -109.5q2 -12 10 -23h393v-166h-344q2 -14 3 -27.5t1 -27.5q0 -109 -55 -191t-139 -135h379q51 0 88.5 16.5t61.5 45t35 66.5t11 81l199 -22q0 -80 -26.5 -146.5t-72 -116t-105.5 -76t-126 -26.5h-670z" />
    <glyph glyph-name="currency" unicode="&#xa4;" horiz-adv-x="1150" 
d="M72 98l125 131q-37 55 -58.5 122t-21.5 141t21.5 142t62.5 126l-129 133l123 121l129 -133q115 80 260 80q135 0 250 -74l122 127l123 -121l-121 -125q43 -59 68 -129t25 -147q0 -78 -23.5 -147t-64.5 -126l116 -121l-121 -121l-118 123q-55 -37 -120 -57t-136 -20
q-74 0 -141.5 21.5t-125.5 61.5l-124 -129zM289 492q0 -66 22.5 -122.5t61.5 -97.5t93 -64.5t118 -23.5q63 0 117.5 23.5t93.5 64.5t60.5 97.5t21.5 122.5t-21.5 122t-60.5 97t-93.5 63.5t-117.5 22.5t-117.5 -22.5t-93.5 -63.5t-61.5 -97t-22.5 -122z" />
    <glyph glyph-name="yen" unicode="&#xa5;" horiz-adv-x="1187" 
d="M18 1329h234l301 -536l285 536h229l-317 -555h247v-145h-342l-2 -2v-162h344v-148h-344v-317h-198v317h-346v148h346v162l-2 2h-344v145h243z" />
    <glyph glyph-name="brokenbar" unicode="&#xa6;" horiz-adv-x="536" 
d="M184 -299v821h168v-821h-168zM184 750v821h168v-821h-168z" />
    <glyph glyph-name="section" unicode="&#xa7;" horiz-adv-x="1275" 
d="M225 1108q0 86 34 155.5t92.5 118t134 75t159.5 26.5q98 0 174 -30t126 -81t77 -119.5t27 -148.5l-185 -37q0 115 -55 184.5t-168 69.5q-98 0 -158.5 -53.5t-60.5 -141.5q0 -113 123 -176l211 -110q57 -29 108 -62t91 -74.5t63.5 -94t23.5 -120.5q0 -47 -16 -88
t-40.5 -74.5t-55.5 -57t-60 -36.5q86 -53 133.5 -131.5t47.5 -164.5t-34 -156t-92.5 -119t-134 -75.5t-159.5 -26.5q-98 0 -173 27.5t-126 77.5t-77 121t-28 155l183 36q-4 -113 55 -184.5t170 -71.5q96 0 156.5 50.5t60.5 144.5q0 57 -33 103.5t-88 74.5l-213 111
q-57 29 -108.5 61.5t-90 73.5t-62.5 93t-24 122q0 47 16.5 89t42 75t56.5 56.5t60 33.5q-88 53 -135.5 133t-47.5 166zM420 586q0 -57 29.5 -100.5t101.5 -79.5l205 -111q35 16 66.5 60t31.5 104q0 57 -29.5 100t-101.5 80l-205 111q-35 -16 -66.5 -61.5t-31.5 -102.5z" />
    <glyph glyph-name="dieresis" unicode="&#xa8;" horiz-adv-x="776" 
d="M72 1272q0 49 33.5 84t82.5 35q51 0 86 -35t35 -84q0 -51 -34.5 -85t-86.5 -34q-49 0 -82.5 34t-33.5 85zM467 1272q0 49 34 84t85 35q49 0 84 -35t35 -84q0 -51 -35 -85t-84 -34q-51 0 -85 34t-34 85z" />
    <glyph glyph-name="copyright" unicode="&#xa9;" horiz-adv-x="1640" 
d="M72 727q0 156 58 293t159.5 240.5t237 163t290.5 59.5q156 0 293 -59.5t238.5 -163t161 -240.5t59.5 -293t-59.5 -294t-161 -240.5t-238.5 -163t-293 -60.5t-291 60.5t-236.5 163t-159.5 240.5t-58 294zM231 727q0 -129 45.5 -240.5t125 -192.5t186 -128t229.5 -47
t229.5 47t186.5 128t125 192.5t45 240.5t-45 239.5t-125 192.5t-186.5 128t-229.5 46t-229.5 -46t-186 -128t-125 -192.5t-45.5 -239.5zM418 731q0 92 30.5 170t85 135.5t128 89t159.5 31.5q80 0 141.5 -22.5t105.5 -59.5t71.5 -83t40.5 -91l-144 -59q-6 29 -21.5 59.5
t-41 55t-63.5 40t-89 15.5q-47 0 -91 -18.5t-78 -53.5t-54 -88t-20 -121t19 -121t53 -89t79 -54t94 -18q55 0 94 17t66 41.5t42 53.5t22 53l139 -61q-14 -43 -44 -87t-74 -81t-105.5 -59.5t-139.5 -22.5q-88 0 -161.5 33t-128 90t-85 136t-30.5 169z" />
    <glyph glyph-name="ordfeminine" unicode="&#xaa;" 
d="M76 901q0 98 63.5 153.5t159.5 69.5l199 29q35 4 46 19.5t11 35.5q0 53 -38 92t-124 39q-76 0 -116.5 -41t-47.5 -106l-137 33q6 51 30.5 95t64.5 75.5t92.5 49t111.5 17.5q82 0 140.5 -21.5t95.5 -58t54 -86t17 -102.5v-369q0 -29 1 -50t3 -38q2 -18 5 -32h-140
q-2 12 -4 26q-2 12 -3 30.5t-1 41.5q-12 -18 -32.5 -40t-49 -40t-67.5 -29.5t-88 -11.5q-55 0 -101.5 18.5t-78 48t-49 69.5t-17.5 83zM223 909q0 -41 32 -73.5t87 -32.5q88 0 150.5 48t62.5 169v33l-225 -33q-45 -8 -76 -35t-31 -76z" />
    <glyph glyph-name="guillemotleft" unicode="&#xab;" horiz-adv-x="944" 
d="M41 594l272 391h191l-268 -391l268 -391h-191zM440 594l273 391h190l-268 -391l268 -391h-190z" />
    <glyph glyph-name="logicalnot" unicode="&#xac;" horiz-adv-x="1173" 
d="M92 705v167h948v-567h-172v400h-776z" />
    <glyph glyph-name="uni00AD" unicode="&#xad;" horiz-adv-x="759" 
d="M102 504v168h555v-168h-555z" />
    <glyph glyph-name="registered" unicode="&#xae;" horiz-adv-x="1640" 
d="M72 727q0 156 58 293t159.5 240.5t237 163t290.5 59.5q156 0 293 -59.5t238.5 -163t161 -240.5t59.5 -293t-59.5 -294t-161 -240.5t-238.5 -163t-293 -60.5t-291 60.5t-236.5 163t-159.5 240.5t-58 294zM231 727q0 -129 45.5 -240.5t125 -192.5t186 -128t229.5 -47
t229.5 47t186.5 128t125 192.5t45 240.5t-45 239.5t-125 192.5t-186.5 128t-229.5 46t-229.5 -46t-186 -128t-125 -192.5t-45.5 -239.5zM567 322v823h285q59 0 110.5 -19.5t88 -54.5t58 -82t21.5 -102q0 -88 -51 -153.5t-135 -92.5l191 -319h-179l-176 307h-57v-307h-156z
M723 764h106q70 0 107 31.5t37 89.5q0 125 -144 125h-106v-246z" />
    <glyph glyph-name="macron" unicode="&#xaf;" horiz-adv-x="702" 
d="M72 1182v166h559v-166h-559z" />
    <glyph glyph-name="degree" unicode="&#xb0;" horiz-adv-x="831" 
d="M72 1137q0 72 27.5 133t74.5 107t109.5 72t132.5 26t132 -26t109.5 -72t75 -107.5t27.5 -132.5q0 -72 -27.5 -133.5t-75 -107.5t-110 -71.5t-131.5 -25.5q-70 0 -132.5 25.5t-109.5 71.5t-74.5 107.5t-27.5 133.5zM244 1137q0 -78 49 -127t123 -49t123 49t49 127
t-49.5 127t-122.5 49q-74 0 -123 -49t-49 -127z" />
    <glyph glyph-name="plusminus" unicode="&#xb1;" horiz-adv-x="997" 
d="M51 104v162h895v-162h-895zM51 633v158h363v278h168v-278h364v-158h-364v-275h-168v275h-363z" />
    <glyph glyph-name="uni00B2" unicode="&#xb2;" horiz-adv-x="690" 
d="M74 705q-4 98 36 179t138 144l114 76q88 57 89 129q0 41 -27 71.5t-80 30.5t-83 -32.5t-30 -85.5q0 -6 1 -22.5t6 -31.5h-152q-4 16 -5 33.5t-1 30.5q0 49 18.5 92t52 75.5t83 52t112.5 19.5t112.5 -19.5t83 -51t51 -74.5t17.5 -90q0 -72 -39 -128t-104 -97l-139 -93
q-23 -16 -41.5 -34.5t-22.5 -40.5h354v-133h-544z" />
    <glyph glyph-name="uni00B3" unicode="&#xb3;" horiz-adv-x="761" 
d="M72 899l137 55q10 -59 54 -95t108 -36q63 0 101 33t38 80q0 43 -22.5 69.5t-55.5 38t-71.5 10.5t-69.5 -14l-60 109l209 170h-342v133h555v-125l-200 -160q88 -8 152.5 -67.5t64.5 -163.5q0 -51 -21.5 -96t-60.5 -79t-93.5 -53.5t-121.5 -19.5q-68 0 -119 18.5t-89 47
t-61.5 66.5t-31.5 79z" />
    <glyph glyph-name="acute" unicode="&#xb4;" horiz-adv-x="561" 
d="M72 1112l180 299h237l-256 -299h-161z" />
    <glyph glyph-name="uni00B5" unicode="&#xb5;" horiz-adv-x="1060" 
 />
    <glyph glyph-name="paragraph" unicode="&#xb6;" horiz-adv-x="1282" 
d="M72 1047q0 98 36.5 173.5t100 127t147.5 78t179 26.5h696v-166h-199v-1698h-170v1698h-190v-1698h-170v1069h-33q-80 0 -152.5 30t-127 82t-86 124t-31.5 154z" />
    <glyph glyph-name="periodcentered" unicode="&#xb7;" horiz-adv-x="450" 
d="M104 588q0 51 35 87t86 36t87 -36t36 -87t-36 -86t-87 -35t-86 35t-35 86z" />
    <glyph glyph-name="cedilla" unicode="&#xb8;" horiz-adv-x="602" 
d="M66 -352l75 92q18 -20 56.5 -45t91.5 -25q37 0 66.5 16.5t29.5 51.5q0 29 -23.5 47t-66.5 18q-33 0 -59 -10l-68 80l98 156h146l-80 -123q86 0 142 -45t56 -123q0 -72 -57 -126t-182 -54q-78 0 -136 26.5t-89 63.5z" />
    <glyph glyph-name="uni00B9" unicode="&#xb9;" horiz-adv-x="528" 
d="M61 1217v106q76 2 117 37t51 92h146v-747h-158v512h-156z" />
    <glyph glyph-name="ordmasculine" unicode="&#xba;" horiz-adv-x="886" 
d="M80 1079q0 82 27.5 154t76.5 123t118 80.5t151 29.5t150.5 -29.5t117.5 -80.5t76.5 -123t27.5 -154q0 -84 -27.5 -154.5t-76.5 -121.5t-117.5 -81t-150.5 -30t-151 30t-118 81t-76.5 121.5t-27.5 154.5zM225 1079q0 -129 67.5 -194.5t160.5 -65.5q45 0 86 16.5t72.5 49.5
t50 82t18.5 112t-18.5 111.5t-50 81.5t-72.5 50t-86 17q-92 0 -160 -66.5t-68 -193.5z" />
    <glyph glyph-name="guillemotright" unicode="&#xbb;" horiz-adv-x="944" 
d="M41 203l268 391l-268 391h190l273 -391l-273 -391h-190zM440 203l269 391l-269 391h191l272 -391l-272 -391h-191z" />
    <glyph glyph-name="onequarter" unicode="&#xbc;" horiz-adv-x="1581" 
d="M113 1217v106q76 2 116.5 37t51.5 92h145v-747h-158v512h-155zM156 55l1095 1434l121 -90l-1093 -1436zM801 147v150l362 451h174v-467h131v-134h-131v-147h-157v147h-379zM952 281h228v284z" />
    <glyph glyph-name="onehalf" unicode="&#xbd;" horiz-adv-x="1589" 
d="M113 1217v106q76 2 116.5 37t51.5 92h145v-747h-158v512h-155zM154 55l1095 1434l121 -90l-1094 -1436zM932 0q-4 98 36 179t138 145l115 75q88 57 88 129q0 41 -27 72t-80 31t-82.5 -33t-29.5 -86q0 -6 1 -22.5t5 -30.5h-152q-4 16 -5 33.5t-1 29.5q0 49 18.5 92t52 76
t83 52.5t112.5 19.5t112.5 -19.5t83.5 -51.5t51 -75t17 -90q0 -72 -38.5 -128t-104.5 -97l-139 -92q-23 -16 -41.5 -34.5t-22.5 -41.5h355v-133h-545z" />
    <glyph glyph-name="threequarters" unicode="&#xbe;" horiz-adv-x="1802" 
d="M133 899l137 55q10 -59 54.5 -95t107.5 -36t101 33t38 80q0 43 -22.5 69.5t-55 38t-71.5 10.5t-70 -14l-59 109l209 170h-342v133h555v-125l-201 -160q88 -8 152.5 -67.5t64.5 -163.5q0 -51 -21.5 -96t-60.5 -79t-93 -53.5t-122 -19.5t-119 18.5t-89 47t-61.5 66.5
t-31.5 79zM356 55l1096 1434l121 -90l-1094 -1436zM1001 147v150l363 451h174v-467h131v-134h-131v-147h-158v147h-379zM1153 281h227v284z" />
    <glyph glyph-name="questiondown" unicode="&#xbf;" horiz-adv-x="983" 
d="M51 -12q0 123 59.5 209t149.5 147l94 64q53 37 75 100t13 135h181q2 -18 2 -35v-37q0 -104 -40 -180t-130 -139l-90 -62q-109 -78 -109 -200q0 -45 15.5 -87t45 -75t75.5 -52.5t108 -19.5q68 0 116 22.5t78.5 59.5t46 84t15.5 96q0 27 -4 55.5t-11 45.5l199 -25
q12 -43 12 -98q0 -72 -26.5 -145.5t-82 -135t-140.5 -100.5t-203 -39q-109 0 -192 35t-140 92t-87 132t-30 153zM401 940q0 55 38 92t93 37t92.5 -37t37.5 -92t-37 -93t-93 -38q-55 0 -93 38t-38 93z" />
    <glyph glyph-name="Agrave" unicode="&#xc0;" horiz-adv-x="1363" 
d="M0 0l573 1452h215l576 -1452h-217l-148 385h-639l-145 -385h-215zM315 1788h256l205 -244h-190zM430 571h498l-250 652z" />
    <glyph glyph-name="Aacute" unicode="&#xc1;" horiz-adv-x="1363" 
d="M0 0l573 1452h215l576 -1452h-217l-148 385h-639l-145 -385h-215zM430 571h498l-250 652zM571 1544l205 244h256l-268 -244h-193z" />
    <glyph glyph-name="Acircumflex" unicode="&#xc2;" horiz-adv-x="1363" 
d="M0 0l573 1452h215l576 -1452h-217l-148 385h-639l-145 -385h-215zM330 1544l225 244h246l235 -244h-180l-178 131l-170 -131h-178zM430 571h498l-250 652z" />
    <glyph glyph-name="Atilde" unicode="&#xc3;" horiz-adv-x="1363" 
d="M0 0l573 1452h215l576 -1452h-217l-148 385h-639l-145 -385h-215zM332 1540v33q0 115 56 171t142 56q43 0 81 -14t69 -33l31 -18q20 -12 38.5 -20.5t38.5 -8.5q29 0 48.5 19.5t17.5 68.5h137v-33q0 -115 -55 -171t-141 -56q-43 0 -79 14.5t-67 32.5l-31 18
q-20 12 -39.5 20.5t-41.5 8.5q-29 0 -48.5 -19.5t-17.5 -68.5h-139zM430 571h498l-250 652z" />
    <glyph glyph-name="Adieresis" unicode="&#xc4;" horiz-adv-x="1363" 
d="M0 0l573 1452h215l576 -1452h-217l-148 385h-639l-145 -385h-215zM326 1667q0 51 34.5 86t85.5 35t86 -35t35 -86t-34.5 -86t-86.5 -35q-51 0 -85.5 35t-34.5 86zM430 571h498l-250 652zM799 1667q0 51 34.5 86t86.5 35q51 0 85.5 -35t34.5 -86t-34.5 -86t-85.5 -35
t-86 35t-35 86z" />
    <glyph glyph-name="Aring" unicode="&#xc5;" horiz-adv-x="1363" 
d="M0 0l541 1368q-41 31 -65.5 77t-24.5 101q0 47 18 88t50 72t73 48.5t86 17.5q47 0 89 -17.5t72.5 -48.5t49 -72t18.5 -88q0 -53 -23.5 -99t-64.5 -77l545 -1370h-217l-148 385h-639l-145 -385h-215zM430 571h498l-250 652zM582 1546q0 -39 24.5 -64.5t61.5 -29.5h16
q39 4 64.5 29.5t25.5 64.5q0 41 -28.5 68.5t-69.5 27.5t-67.5 -27.5t-26.5 -68.5z" />
    <glyph glyph-name="AE" unicode="&#xc6;" horiz-adv-x="2029" 
d="M-4 0l969 1452h999v-186h-682v-447h619v-188h-619v-445h682v-186h-883v401h-573l-258 -401h-254zM625 582h456v704z" />
    <glyph glyph-name="Ccedilla" unicode="&#xc7;" horiz-adv-x="1515" 
d="M92 727q0 182 61.5 322.5t163 236.5t231.5 146.5t265 50.5q125 0 229.5 -33t186.5 -92.5t138 -145.5t85 -190l-186 -66q-41 166 -157 254t-296 88q-98 0 -191.5 -35.5t-166 -106.5t-115.5 -178.5t-43 -250.5t43 -250.5t115.5 -179.5t166 -107.5t191.5 -35.5
q90 0 166 26.5t134 72.5t99 110.5t64 138.5l178 -66q-27 -94 -78 -174t-122.5 -140.5t-164 -99t-198.5 -49.5l-43 -67q86 0 142.5 -45t56.5 -123q0 -72 -57.5 -126t-182.5 -54q-78 0 -136.5 26.5t-88.5 63.5l75 92q18 -20 56.5 -45t91.5 -25q37 0 66.5 16.5t29.5 51.5
q0 29 -23.5 47t-66.5 18q-33 0 -59 -10l-68 80l61 100q-131 10 -248.5 65.5t-207.5 151t-143.5 230.5t-53.5 307z" />
    <glyph glyph-name="Egrave" unicode="&#xc8;" horiz-adv-x="1148" 
d="M184 0v1452h883v-186h-682v-447h619v-188h-619v-445h682v-186h-883zM309 1788h256l205 -244h-190z" />
    <glyph glyph-name="Eacute" unicode="&#xc9;" horiz-adv-x="1148" 
d="M184 0v1452h883v-186h-682v-447h619v-188h-619v-445h682v-186h-883zM459 1544l205 244h256l-269 -244h-192z" />
    <glyph glyph-name="Ecircumflex" unicode="&#xca;" horiz-adv-x="1148" 
d="M184 0v1452h883v-186h-682v-447h619v-188h-619v-445h682v-186h-883zM317 1544l226 244h245l236 -244h-180l-178 131l-170 -131h-179z" />
    <glyph glyph-name="Edieresis" unicode="&#xcb;" horiz-adv-x="1148" 
d="M184 0v1452h883v-186h-682v-447h619v-188h-619v-445h682v-186h-883zM268 1667q0 51 35 86t86 35t86 -35t35 -86t-35 -86t-86 -35t-86 35t-35 86zM741 1667q0 51 35 86t86 35t86 -35t35 -86t-35 -86t-86 -35t-86 35t-35 86z" />
    <glyph glyph-name="Igrave" unicode="&#xcc;" horiz-adv-x="573" 
d="M-80 1788h256l205 -244h-191zM184 0v1452h205v-1452h-205z" />
    <glyph glyph-name="Iacute" unicode="&#xcd;" horiz-adv-x="573" 
d="M184 0v1452h205v-1452h-205zM193 1544l204 244h256l-268 -244h-192z" />
    <glyph glyph-name="Icircumflex" unicode="&#xce;" horiz-adv-x="573" 
d="M-53 1544l225 244h246l235 -244h-180l-178 131l-170 -131h-178zM184 0v1452h205v-1452h-205z" />
    <glyph glyph-name="Idieresis" unicode="&#xcf;" horiz-adv-x="573" 
d="M23 1667q0 47 30.5 78t77.5 31t79 -31t32 -78t-32 -79t-79 -32t-77.5 32t-30.5 79zM184 0v1452h205v-1452h-205zM336 1667q0 47 31.5 78t78.5 31t78 -31t31 -78t-30.5 -79t-78.5 -32q-47 0 -78.5 32t-31.5 79z" />
    <glyph glyph-name="Eth" unicode="&#xd0;" horiz-adv-x="1474" 
d="M33 655v168h151v629h508q137 0 263 -47t220.5 -139t150.5 -228.5t56 -314.5t-56 -313.5t-152.5 -226.5t-222.5 -137t-263 -46h-504v655h-151zM385 178h297q100 0 190.5 34t158 101.5t106.5 170t39 239.5t-39 240.5t-105.5 172t-156 103.5t-189.5 35h-301v-451h254v-168
h-254v-477z" />
    <glyph glyph-name="Ntilde" unicode="&#xd1;" horiz-adv-x="1562" 
d="M184 0v1452h269l725 -1114v1114h200v-1452h-209l-784 1184v-1184h-201zM459 1540v33q0 115 56 171t142 56q43 0 81 -14t69 -33l31 -18q20 -12 38.5 -20.5t38.5 -8.5q29 0 48.5 19.5t17.5 68.5h137v-33q0 -115 -55 -171t-141 -56q-43 0 -79 14.5t-67 32.5l-31 18
q-20 12 -39.5 20.5t-41.5 8.5q-29 0 -48.5 -19.5t-17.5 -68.5h-139z" />
    <glyph glyph-name="Ograve" unicode="&#xd2;" horiz-adv-x="1642" 
d="M92 727q0 182 62.5 322.5t165 236.5t233.5 146.5t268 50.5t268.5 -50.5t233.5 -146.5t164.5 -236.5t62.5 -322.5t-62.5 -323.5t-164.5 -237.5t-233.5 -146.5t-268.5 -50.5t-268 50.5t-233.5 146.5t-165 237.5t-62.5 323.5zM297 727q0 -143 44 -250.5t116.5 -179.5
t167 -107.5t196.5 -35.5q100 0 195.5 35.5t168 107.5t117 179.5t44.5 250.5t-44.5 250.5t-117 178.5t-167.5 106.5t-196 35.5q-102 0 -196.5 -35.5t-167 -106.5t-116.5 -178.5t-44 -250.5zM459 1788h256l205 -244h-191z" />
    <glyph glyph-name="Oacute" unicode="&#xd3;" horiz-adv-x="1642" 
d="M92 727q0 182 62.5 322.5t165 236.5t233.5 146.5t268 50.5t268.5 -50.5t233.5 -146.5t164.5 -236.5t62.5 -322.5t-62.5 -323.5t-164.5 -237.5t-233.5 -146.5t-268.5 -50.5t-268 50.5t-233.5 146.5t-165 237.5t-62.5 323.5zM297 727q0 -143 44 -250.5t116.5 -179.5
t167 -107.5t196.5 -35.5q100 0 195.5 35.5t168 107.5t117 179.5t44.5 250.5t-44.5 250.5t-117 178.5t-167.5 106.5t-196 35.5q-102 0 -196.5 -35.5t-167 -106.5t-116.5 -178.5t-44 -250.5zM709 1544l204 244h256l-268 -244h-192z" />
    <glyph glyph-name="Ocircumflex" unicode="&#xd4;" horiz-adv-x="1642" 
d="M92 727q0 182 62.5 322.5t165 236.5t233.5 146.5t268 50.5t268.5 -50.5t233.5 -146.5t164.5 -236.5t62.5 -322.5t-62.5 -323.5t-164.5 -237.5t-233.5 -146.5t-268.5 -50.5t-268 50.5t-233.5 146.5t-165 237.5t-62.5 323.5zM297 727q0 -143 44 -250.5t116.5 -179.5
t167 -107.5t196.5 -35.5q100 0 195.5 35.5t168 107.5t117 179.5t44.5 250.5t-44.5 250.5t-117 178.5t-167.5 106.5t-196 35.5q-102 0 -196.5 -35.5t-167 -106.5t-116.5 -178.5t-44 -250.5zM479 1544l226 244h245l236 -244h-180l-179 131l-170 -131h-178z" />
    <glyph glyph-name="Otilde" unicode="&#xd5;" horiz-adv-x="1642" 
d="M92 727q0 182 62.5 322.5t165 236.5t233.5 146.5t268 50.5t268.5 -50.5t233.5 -146.5t164.5 -236.5t62.5 -322.5t-62.5 -323.5t-164.5 -237.5t-233.5 -146.5t-268.5 -50.5t-268 50.5t-233.5 146.5t-165 237.5t-62.5 323.5zM297 727q0 -143 44 -250.5t116.5 -179.5
t167 -107.5t196.5 -35.5q100 0 195.5 35.5t168 107.5t117 179.5t44.5 250.5t-44.5 250.5t-117 178.5t-167.5 106.5t-196 35.5q-102 0 -196.5 -35.5t-167 -106.5t-116.5 -178.5t-44 -250.5zM498 1542v33q0 115 56 171t142 56q43 0 81 -14t69 -33l31 -18q20 -12 38.5 -20.5
t38.5 -8.5q29 0 48.5 19.5t17.5 68.5h137v-33q0 -115 -55 -171t-141 -56q-43 0 -79 14.5t-67 32.5l-31 19q-20 12 -39.5 20t-42.5 8q-29 0 -48 -19.5t-17 -68.5h-139z" />
    <glyph glyph-name="Odieresis" unicode="&#xd6;" horiz-adv-x="1642" 
d="M92 727q0 182 62.5 322.5t165 236.5t233.5 146.5t268 50.5t268.5 -50.5t233.5 -146.5t164.5 -236.5t62.5 -322.5t-62.5 -323.5t-164.5 -237.5t-233.5 -146.5t-268.5 -50.5t-268 50.5t-233.5 146.5t-165 237.5t-62.5 323.5zM297 727q0 -143 44 -250.5t116.5 -179.5
t167 -107.5t196.5 -35.5q100 0 195.5 35.5t168 107.5t117 179.5t44.5 250.5t-44.5 250.5t-117 178.5t-167.5 106.5t-196 35.5q-102 0 -196.5 -35.5t-167 -106.5t-116.5 -178.5t-44 -250.5zM465 1667q0 51 35 86t86 35t86 -35t35 -86t-35 -86t-86 -35t-86 35t-35 86z
M938 1667q0 51 35 86t86 35t86 -35t35 -86t-35 -86t-86 -35t-86 35t-35 86z" />
    <glyph glyph-name="multiply" unicode="&#xd7;" horiz-adv-x="1060" 
d="M74 233l342 355l-340 354l117 117l337 -352l338 352l117 -115l-342 -354l344 -357l-115 -116l-344 354l-340 -352z" />
    <glyph glyph-name="Oslash" unicode="&#xd8;" horiz-adv-x="1642" 
d="M92 727q0 182 62.5 322.5t165 236.5t233.5 146.5t268 50.5q211 0 393 -113l146 189l139 -107l-149 -192q92 -96 146 -229.5t54 -303.5q0 -182 -62.5 -323.5t-164.5 -237.5t-233.5 -146.5t-268.5 -50.5q-102 0 -200.5 28t-186.5 81l-139 -182l-143 104l145 188
q-92 96 -148.5 230.5t-56.5 308.5zM297 727q0 -123 32.5 -219t88.5 -166l682 881q-63 39 -134 57t-145 18q-102 0 -196.5 -35.5t-167 -106.5t-116.5 -178.5t-44 -250.5zM549 225q125 -72 272 -71q100 0 195.5 35.5t168 107.5t117 179.5t44.5 250.5q0 121 -32 214t-85 163z
" />
    <glyph glyph-name="Ugrave" unicode="&#xd9;" horiz-adv-x="1392" 
d="M174 496v956h199v-950q0 -166 85 -256t238 -90q154 0 238 90t84 256v950h201v-956q0 -129 -40 -227.5t-111 -165t-166 -100.5t-206 -34t-206 34t-165.5 100.5t-110.5 165t-40 227.5zM377 1788h256l205 -244h-191z" />
    <glyph glyph-name="Uacute" unicode="&#xda;" horiz-adv-x="1392" 
d="M174 496v956h199v-950q0 -166 85 -256t238 -90q154 0 238 90t84 256v950h201v-956q0 -129 -40 -227.5t-111 -165t-166 -100.5t-206 -34t-206 34t-165.5 100.5t-110.5 165t-40 227.5zM549 1544l205 244h256l-269 -244h-192z" />
    <glyph glyph-name="Ucircumflex" unicode="&#xdb;" horiz-adv-x="1392" 
d="M174 496v956h199v-950q0 -166 85 -256t238 -90q154 0 238 90t84 256v950h201v-956q0 -129 -40 -227.5t-111 -165t-166 -100.5t-206 -34t-206 34t-165.5 100.5t-110.5 165t-40 227.5zM334 1544l225 244h246l235 -244h-180l-178 131l-170 -131h-178z" />
    <glyph glyph-name="Udieresis" unicode="&#xdc;" horiz-adv-x="1392" 
d="M174 496v956h199v-950q0 -166 85 -256t238 -90q154 0 238 90t84 256v950h201v-956q0 -129 -40 -227.5t-111 -165t-166 -100.5t-206 -34t-206 34t-165.5 100.5t-110.5 165t-40 227.5zM330 1667q0 51 34.5 86t86.5 35q51 0 85.5 -35t34.5 -86t-34.5 -86t-85.5 -35t-86 35
t-35 86zM803 1667q0 51 34.5 86t86.5 35q51 0 85.5 -35t34.5 -86t-34.5 -86t-85.5 -35t-86 35t-35 86z" />
    <glyph glyph-name="Yacute" unicode="&#xdd;" horiz-adv-x="1228" 
d="M0 1452h246l375 -647l374 647h234l-514 -827v-625h-201v625zM465 1544l205 244h256l-269 -244h-192z" />
    <glyph glyph-name="Thorn" unicode="&#xde;" horiz-adv-x="1212" 
d="M184 0v1452h201v-287h311q100 0 185.5 -32.5t148 -89t97 -134.5t34.5 -170t-34.5 -169.5t-97 -134t-147.5 -88.5t-186 -32h-311v-315h-201zM385 494h295q131 0 203.5 65.5t72.5 177.5q0 117 -72.5 183.5t-203.5 66.5h-295v-493z" />
    <glyph glyph-name="germandbls" unicode="&#xdf;" horiz-adv-x="1122" 
d="M164 0v1032q0 104 32.5 187.5t90 141.5t137.5 90t176 32q186 0 293.5 -100.5t107.5 -266.5q0 -96 -49 -173t-106 -118l-70 -51q-35 -25 -55.5 -49.5t-20.5 -56.5q0 -39 25 -56.5t61 -36.5l70 -34q37 -18 74 -43t67.5 -57.5t50 -74.5t19.5 -96q0 -57 -18.5 -111.5
t-58.5 -96.5t-101.5 -67.5t-147.5 -25.5q-90 0 -150.5 29t-97 71t-53 90t-16.5 85l162 45q0 -23 8 -50.5t26.5 -52t48 -41t72.5 -16.5q39 0 67 12.5t44 30.5t22.5 39.5t4.5 42.5q-6 47 -34 69.5t-71 45.5l-67 32q-35 16 -70 37t-63.5 49.5t-47 69.5t-18.5 98q0 76 35 127.5
t88 94.5l76 59q43 35 76.5 77t33.5 103q0 90 -61.5 143.5t-149.5 53.5q-113 0 -181.5 -78t-68.5 -213v-1022h-192z" />
    <glyph glyph-name="agrave" unicode="&#xe0;" 
d="M102 264q0 66 22.5 118t62.5 89t95.5 59.5t118.5 32.5l267 39q45 6 60 26.5t15 47.5q0 72 -51 124t-164 52q-102 0 -156.5 -56.5t-64.5 -142.5l-184 43q8 70 42 129.5t87 101.5t122.5 65.5t149.5 23.5q111 0 189 -30t128 -79t72.5 -114.5t22.5 -137.5v-493q0 -76 6 -119
q2 -25 6 -43h-188q-4 14 -6 35q-2 16 -3 40.5t-1 57.5q-16 -27 -43 -55.5t-66 -53t-91 -40t-118 -15.5q-76 0 -136 24.5t-103 64.5t-67 93.5t-24 112.5zM225 1411h238l178 -299h-160zM299 274q0 -55 43 -99t117 -44q59 0 111.5 15.5t90 49t60 90t22.5 136.5v45l-301 -45
q-59 -10 -101 -46t-42 -102z" />
    <glyph glyph-name="aacute" unicode="&#xe1;" 
d="M102 264q0 66 22.5 118t62.5 89t95.5 59.5t118.5 32.5l267 39q45 6 60 26.5t15 47.5q0 72 -51 124t-164 52q-102 0 -156.5 -56.5t-64.5 -142.5l-184 43q8 70 42 129.5t87 101.5t122.5 65.5t149.5 23.5q111 0 189 -30t128 -79t72.5 -114.5t22.5 -137.5v-493q0 -76 6 -119
q2 -25 6 -43h-188q-4 14 -6 35q-2 16 -3 40.5t-1 57.5q-16 -27 -43 -55.5t-66 -53t-91 -40t-118 -15.5q-76 0 -136 24.5t-103 64.5t-67 93.5t-24 112.5zM299 274q0 -55 43 -99t117 -44q59 0 111.5 15.5t90 49t60 90t22.5 136.5v45l-301 -45q-59 -10 -101 -46t-42 -102z
M389 1112l180 299h238l-256 -299h-162z" />
    <glyph glyph-name="acircumflex" unicode="&#xe2;" 
d="M102 264q0 66 22.5 118t62.5 89t95.5 59.5t118.5 32.5l267 39q45 6 60 26.5t15 47.5q0 72 -51 124t-164 52q-102 0 -156.5 -56.5t-64.5 -142.5l-184 43q8 70 42 129.5t87 101.5t122.5 65.5t149.5 23.5q111 0 189 -30t128 -79t72.5 -114.5t22.5 -137.5v-493q0 -76 6 -119
q2 -25 6 -43h-188q-4 14 -6 35q-2 16 -3 40.5t-1 57.5q-16 -27 -43 -55.5t-66 -53t-91 -40t-118 -15.5q-76 0 -136 24.5t-103 64.5t-67 93.5t-24 112.5zM299 274q0 -55 43 -99t117 -44q59 0 111.5 15.5t90 49t60 90t22.5 136.5v45l-301 -45q-59 -10 -101 -46t-42 -102z
M532 1116l207 285h232l207 -285h-181l-143 166l-143 -166h-179z" />
    <glyph glyph-name="atilde" unicode="&#xe3;" 
d="M102 264q0 66 22.5 118t62.5 89t95.5 59.5t118.5 32.5l267 39q45 6 60 26.5t15 47.5q0 72 -51 124t-164 52q-102 0 -156.5 -56.5t-64.5 -142.5l-184 43q8 70 42 129.5t87 101.5t122.5 65.5t149.5 23.5q111 0 189 -30t128 -79t72.5 -114.5t22.5 -137.5v-493q0 -76 6 -119
q2 -25 6 -43h-188q-4 14 -6 35q-2 16 -3 40.5t-1 57.5q-16 -27 -43 -55.5t-66 -53t-91 -40t-118 -15.5q-76 0 -136 24.5t-103 64.5t-67 93.5t-24 112.5zM227 1135v32q0 115 53.5 170.5t139.5 55.5q43 0 74.5 -14.5t62.5 -32.5l29 -19q20 -12 36.5 -20.5t36.5 -8.5
q29 0 45.5 20.5t14.5 70.5h137v-33q0 -115 -52 -170.5t-138 -55.5q-43 0 -75 14.5t-63 33.5l-28 18q-20 12 -37 20.5t-37 8.5q-29 0 -45 -20.5t-14 -69.5h-140zM299 274q0 -55 43 -99t117 -44q59 0 111.5 15.5t90 49t60 90t22.5 136.5v45l-301 -45q-59 -10 -101 -46
t-42 -102z" />
    <glyph glyph-name="adieresis" unicode="&#xe4;" 
d="M102 264q0 66 22.5 118t62.5 89t95.5 59.5t118.5 32.5l267 39q45 6 60 26.5t15 47.5q0 72 -51 124t-164 52q-102 0 -156.5 -56.5t-64.5 -142.5l-184 43q8 70 42 129.5t87 101.5t122.5 65.5t149.5 23.5q111 0 189 -30t128 -79t72.5 -114.5t22.5 -137.5v-493q0 -76 6 -119
q2 -25 6 -43h-188q-4 14 -6 35q-2 16 -3 40.5t-1 57.5q-16 -27 -43 -55.5t-66 -53t-91 -40t-118 -15.5q-76 0 -136 24.5t-103 64.5t-67 93.5t-24 112.5zM219 1272q0 49 34 84t83 35q51 0 86 -35t35 -84q0 -51 -35 -85t-86 -34q-49 0 -83 34t-34 85zM299 274q0 -55 43 -99
t117 -44q59 0 111.5 15.5t90 49t60 90t22.5 136.5v45l-301 -45q-59 -10 -101 -46t-42 -102zM614 1272q0 49 34 84t85 35q49 0 84 -35t35 -84q0 -51 -35 -85t-84 -34q-51 0 -85 34t-34 85z" />
    <glyph glyph-name="aring" unicode="&#xe5;" 
d="M102 264q0 66 22.5 118t62.5 89t95.5 59.5t118.5 32.5l267 39q45 6 60 26.5t15 47.5q0 72 -51 124t-164 52q-102 0 -156.5 -56.5t-64.5 -142.5l-184 43q8 70 42 129.5t87 101.5t122.5 65.5t149.5 23.5q111 0 189 -30t128 -79t72.5 -114.5t22.5 -137.5v-493q0 -76 6 -119
q2 -25 6 -43h-188q-4 14 -6 35q-2 16 -3 40.5t-1 57.5q-16 -27 -43 -55.5t-66 -53t-91 -40t-118 -15.5q-76 0 -136 24.5t-103 64.5t-67 93.5t-24 112.5zM299 274q0 -55 43 -99t117 -44q59 0 111.5 15.5t90 49t60 90t22.5 136.5v45l-301 -45q-59 -10 -101 -46t-42 -102z
M301 1313q0 47 18.5 88t50 71.5t72.5 48t86 17.5q47 0 89 -17.5t73 -48t49.5 -71.5t18.5 -88t-18.5 -88t-49.5 -71t-73 -47t-89 -17q-45 0 -86 17t-72.5 47t-50 71t-18.5 88zM432 1313q0 -41 26.5 -67.5t67.5 -26.5t70 26.5t29 67.5t-29 68.5t-70 27.5t-67.5 -27.5
t-26.5 -68.5z" />
    <glyph glyph-name="ae" unicode="&#xe6;" horiz-adv-x="1783" 
d="M102 264q0 66 22.5 117t62.5 88t95.5 59.5t118.5 32.5l285 39q49 8 63.5 30.5t14.5 45.5q0 72 -56.5 127t-168.5 55q-104 0 -168 -55t-74 -141l-174 34q6 74 46 133.5t98.5 101.5t129 63.5t142.5 21.5q127 0 215 -46t137 -120q66 78 157 122t191 44q113 0 202 -38
t148.5 -105.5t91 -163t31.5 -209.5q0 -14 -1 -24.5t-1 -18.5q-2 -8 -2 -19h-741q2 -66 25.5 -120t63.5 -94t93 -62.5t115 -22.5q119 0 182 57.5t92 141.5l168 -57q-20 -66 -61 -122.5t-98.5 -98.5t-129 -66.5t-153.5 -24.5q-123 0 -231.5 53.5t-176.5 157.5
q-23 -39 -57.5 -76.5t-84.5 -67.5t-118 -48.5t-154 -18.5q-78 0 -140 24.5t-106 64.5t-69 93.5t-25 112.5zM299 270q0 -53 44 -96t126 -43q51 0 103.5 15.5t95.5 49t69.5 89t26.5 135.5v47l-322 -45q-66 -10 -104.5 -47t-38.5 -105zM973 594h538q-4 106 -72.5 179t-197.5 73
q-61 0 -109.5 -21.5t-82 -57.5t-54 -81t-22.5 -92z" />
    <glyph glyph-name="ccedilla" unicode="&#xe7;" horiz-adv-x="1085" 
d="M82 494q0 113 38 209t104.5 165.5t157.5 108.5t196 39q98 0 172.5 -27.5t129 -73t87 -101.5t49.5 -112l-174 -73q-10 37 -28.5 73.5t-50.5 66.5t-77 49.5t-108 19.5q-59 0 -112.5 -22.5t-95.5 -65.5t-66.5 -107.5t-24.5 -148.5t24.5 -148.5t65.5 -108.5t96 -67t115 -23
q68 0 115.5 20.5t79.5 51.5t51.5 67t27.5 64l170 -74q-16 -47 -46 -95t-74 -90t-103.5 -72.5t-134.5 -43.5l-48 -71q86 0 142.5 -45t56.5 -123q0 -72 -57.5 -126t-181.5 -54q-78 0 -136.5 26.5t-89.5 63.5l76 92q18 -20 56 -45t91 -25q37 0 67 16.5t30 51.5q0 29 -23.5 47
t-66.5 18q-33 0 -60 -10l-67 80l63 102q-96 10 -176 54.5t-138.5 114t-90 160t-31.5 192.5z" />
    <glyph glyph-name="egrave" unicode="&#xe8;" horiz-adv-x="1099" 
d="M84 500q0 115 40 210t104.5 162.5t149.5 105.5t177 38q113 0 202 -38t148.5 -105.5t91 -163t31.5 -209.5q0 -14 -1 -24.5t-1 -18.5q-2 -8 -2 -19h-741q2 -66 25.5 -120t63.5 -94t93 -62.5t115 -22.5q119 0 182 57.5t92 141.5l168 -57q-20 -66 -61 -122.5t-98.5 -98.5
t-129 -66.5t-153.5 -24.5q-98 0 -188.5 36t-159 103.5t-108.5 166t-40 225.5zM256 1411h238l178 -299h-160zM289 594h538q-4 106 -72.5 179t-197.5 73q-61 0 -109.5 -21.5t-82 -57.5t-54 -81t-22.5 -92z" />
    <glyph glyph-name="eacute" unicode="&#xe9;" horiz-adv-x="1099" 
d="M84 500q0 115 40 210t104.5 162.5t149.5 105.5t177 38q113 0 202 -38t148.5 -105.5t91 -163t31.5 -209.5q0 -14 -1 -24.5t-1 -18.5q-2 -8 -2 -19h-741q2 -66 25.5 -120t63.5 -94t93 -62.5t115 -22.5q119 0 182 57.5t92 141.5l168 -57q-20 -66 -61 -122.5t-98.5 -98.5
t-129 -66.5t-153.5 -24.5q-98 0 -188.5 36t-159 103.5t-108.5 166t-40 225.5zM289 594h538q-4 106 -72.5 179t-197.5 73q-61 0 -109.5 -21.5t-82 -57.5t-54 -81t-22.5 -92zM457 1112l180 299h237l-256 -299h-161z" />
    <glyph glyph-name="ecircumflex" unicode="&#xea;" horiz-adv-x="1099" 
d="M84 500q0 115 40 210t104.5 162.5t149.5 105.5t177 38q113 0 202 -38t148.5 -105.5t91 -163t31.5 -209.5q0 -14 -1 -24.5t-1 -18.5q-2 -8 -2 -19h-741q2 -66 25.5 -120t63.5 -94t93 -62.5t115 -22.5q119 0 182 57.5t92 141.5l168 -57q-20 -66 -61 -122.5t-98.5 -98.5
t-129 -66.5t-153.5 -24.5q-98 0 -188.5 36t-159 103.5t-108.5 166t-40 225.5zM250 1116l207 285h231l207 -285h-180l-144 166l-143 -166h-178zM289 594h538q-4 106 -72.5 179t-197.5 73q-61 0 -109.5 -21.5t-82 -57.5t-54 -81t-22.5 -92z" />
    <glyph glyph-name="edieresis" unicode="&#xeb;" horiz-adv-x="1099" 
d="M84 500q0 115 40 210t104.5 162.5t149.5 105.5t177 38q113 0 202 -38t148.5 -105.5t91 -163t31.5 -209.5q0 -14 -1 -24.5t-1 -18.5q-2 -8 -2 -19h-741q2 -66 25.5 -120t63.5 -94t93 -62.5t115 -22.5q119 0 182 57.5t92 141.5l168 -57q-20 -66 -61 -122.5t-98.5 -98.5
t-129 -66.5t-153.5 -24.5q-98 0 -188.5 36t-159 103.5t-108.5 166t-40 225.5zM252 1272q0 49 33.5 84t83.5 35q51 0 85.5 -35t34.5 -84q0 -51 -34.5 -85t-85.5 -34q-49 0 -83 34t-34 85zM289 594h538q-4 106 -72.5 179t-197.5 73q-61 0 -109.5 -21.5t-82 -57.5t-54 -81
t-22.5 -92zM647 1272q0 49 34 84t85 35q49 0 84 -35t35 -84q0 -51 -35 -85t-84 -34q-51 0 -85 34t-34 85z" />
    <glyph glyph-name="igrave" unicode="&#xec;" horiz-adv-x="544" 
d="M-63 1411h237l178 -299h-159zM164 0v985h190v-985h-190z" />
    <glyph glyph-name="iacute" unicode="&#xed;" horiz-adv-x="544" 
d="M164 0v985h190v-985h-190zM174 1112l180 299h238l-256 -299h-162z" />
    <glyph glyph-name="icircumflex" unicode="&#xee;" horiz-adv-x="544" 
d="M-61 1116l206 285h232l207 -285h-181l-143 166l-143 -166h-178zM164 0v985h190v-985h-190z" />
    <glyph glyph-name="idieresis" unicode="&#xef;" horiz-adv-x="544" 
d="M10 1272q0 47 31 78.5t78 31.5t78.5 -31.5t31.5 -78.5t-31.5 -78t-78.5 -31t-78 31t-31 78zM164 0v985h190v-985h-190zM299 1272q0 47 30.5 78.5t78.5 31.5q47 0 78.5 -31.5t31.5 -78.5t-31.5 -78t-78.5 -31t-78 31t-31 78z" />
    <glyph glyph-name="eth" unicode="&#xf0;" horiz-adv-x="1171" 
d="M82 494q0 113 37 208t104.5 164.5t159.5 109.5t203 40h18l-96 110h-275v156h142l-146 170h226l145 -170h291v-156h-158l262 -307h-8q49 -66 76 -148.5t27 -176.5q0 -113 -37 -209.5t-104.5 -166t-160 -109.5t-202.5 -40q-111 0 -203 40t-159.5 109.5t-104.5 166
t-37 209.5zM279 494q0 -86 24.5 -152t67.5 -111t98 -67.5t117 -22.5q61 0 116.5 22.5t98.5 67.5t67.5 111t24.5 152t-24.5 150.5t-67.5 109.5t-98.5 67.5t-116.5 22.5t-116.5 -22.5t-98.5 -67.5t-67.5 -109.5t-24.5 -150.5z" />
    <glyph glyph-name="ntilde" unicode="&#xf1;" horiz-adv-x="1159" 
d="M164 0v985h188v-141q53 92 137 131t170 39q88 0 155 -30t112 -82t67.5 -123.5t22.5 -153.5v-625h-193v592q0 51 -12 97t-40 80t-73 53.5t-108 17.5q-115 -4 -174.5 -81t-59.5 -190v-569h-192zM301 1135v32q0 115 53.5 170.5t139.5 55.5q43 0 74.5 -14.5t62.5 -32.5
l28 -19q20 -12 37 -20.5t37 -8.5q29 0 45.5 20.5t14.5 70.5h137v-33q0 -115 -52.5 -170.5t-138.5 -55.5q-43 0 -74.5 14.5t-62.5 33.5l-29 18q-20 12 -36.5 20.5t-36.5 8.5q-29 0 -45.5 -20.5t-14.5 -69.5h-139z" />
    <glyph glyph-name="ograve" unicode="&#xf2;" horiz-adv-x="1171" 
d="M82 494q0 113 37 208t104.5 164.5t159.5 109.5t203 40t203 -40t159.5 -109.5t104.5 -165t37 -207.5q0 -113 -37 -209.5t-104.5 -166t-160 -109.5t-202.5 -40q-111 0 -203 40t-159.5 109.5t-104.5 166t-37 209.5zM258 1411h238l178 -299h-160zM279 494q0 -86 24.5 -152
t67.5 -111t98 -67.5t117 -22.5q61 0 116.5 22.5t98.5 67.5t67.5 111t24.5 152t-24.5 150.5t-67.5 109.5t-98.5 67.5t-116.5 22.5t-116.5 -22.5t-98.5 -67.5t-67.5 -109.5t-24.5 -150.5z" />
    <glyph glyph-name="oacute" unicode="&#xf3;" horiz-adv-x="1171" 
d="M82 494q0 113 37 208t104.5 164.5t159.5 109.5t203 40t203 -40t159.5 -109.5t104.5 -165t37 -207.5q0 -113 -37 -209.5t-104.5 -166t-160 -109.5t-202.5 -40q-111 0 -203 40t-159.5 109.5t-104.5 166t-37 209.5zM279 494q0 -86 24.5 -152t67.5 -111t98 -67.5t117 -22.5
q61 0 116.5 22.5t98.5 67.5t67.5 111t24.5 152t-24.5 150.5t-67.5 109.5t-98.5 67.5t-116.5 22.5t-116.5 -22.5t-98.5 -67.5t-67.5 -109.5t-24.5 -150.5zM461 1112l180 299h238l-256 -299h-162z" />
    <glyph glyph-name="ocircumflex" unicode="&#xf4;" horiz-adv-x="1171" 
d="M82 494q0 113 37 208t104.5 164.5t159.5 109.5t203 40t203 -40t159.5 -109.5t104.5 -165t37 -207.5q0 -113 -37 -209.5t-104.5 -166t-160 -109.5t-202.5 -40q-111 0 -203 40t-159.5 109.5t-104.5 166t-37 209.5zM279 494q0 -86 24.5 -152t67.5 -111t98 -67.5t117 -22.5
q61 0 116.5 22.5t98.5 67.5t67.5 111t24.5 152t-24.5 150.5t-67.5 109.5t-98.5 67.5t-116.5 22.5t-116.5 -22.5t-98.5 -67.5t-67.5 -109.5t-24.5 -150.5zM586 1116l207 285h231l207 -285h-180l-144 166l-143 -166h-178z" />
    <glyph glyph-name="otilde" unicode="&#xf5;" horiz-adv-x="1171" 
d="M82 494q0 113 37 208t104.5 164.5t159.5 109.5t203 40t203 -40t159.5 -109.5t104.5 -165t37 -207.5q0 -113 -37 -209.5t-104.5 -166t-160 -109.5t-202.5 -40q-111 0 -203 40t-159.5 109.5t-104.5 166t-37 209.5zM274 1135v32q0 115 53.5 170.5t139.5 55.5
q43 0 74.5 -14.5t62.5 -32.5l29 -19q20 -12 36.5 -20.5t37.5 -8.5q29 0 45 20.5t14 70.5h137v-33q0 -115 -52 -170.5t-138 -55.5q-43 0 -75 14.5t-63 33.5l-28 18q-20 12 -36.5 20.5t-37.5 8.5q-29 0 -45 -20.5t-14 -69.5h-140zM279 494q0 -86 24.5 -152t67.5 -111t98 -67.5
t117 -22.5q61 0 116.5 22.5t98.5 67.5t67.5 111t24.5 152t-24.5 150.5t-67.5 109.5t-98.5 67.5t-116.5 22.5t-116.5 -22.5t-98.5 -67.5t-67.5 -109.5t-24.5 -150.5z" />
    <glyph glyph-name="odieresis" unicode="&#xf6;" horiz-adv-x="1171" 
d="M82 494q0 113 37 208t104.5 164.5t159.5 109.5t203 40t203 -40t159.5 -109.5t104.5 -165t37 -207.5q0 -113 -37 -209.5t-104.5 -166t-160 -109.5t-202.5 -40q-111 0 -203 40t-159.5 109.5t-104.5 166t-37 209.5zM268 1272q0 49 34 84t83 35q51 0 86 -35t35 -84
q0 -51 -35 -85t-86 -34q-49 0 -83 34t-34 85zM279 494q0 -86 24.5 -152t67.5 -111t98 -67.5t117 -22.5q61 0 116.5 22.5t98.5 67.5t67.5 111t24.5 152t-24.5 150.5t-67.5 109.5t-98.5 67.5t-116.5 22.5t-116.5 -22.5t-98.5 -67.5t-67.5 -109.5t-24.5 -150.5zM664 1272
q0 49 33.5 84t84.5 35q49 0 84 -35t35 -84q0 -51 -35 -85t-84 -34q-51 0 -84.5 34t-33.5 85z" />
    <glyph glyph-name="divide" unicode="&#xf7;" 
d="M72 504v170h936v-170h-936zM426 106v226h229v-226h-229zM426 842v225h229v-225h-229z" />
    <glyph glyph-name="oslash" unicode="&#xf8;" horiz-adv-x="1171" 
d="M82 494q0 113 37 208t104.5 164.5t159.5 109.5t203 40q72 0 136 -17.5t120 -48.5l102 133l123 -98l-104 -135q59 -70 93 -160t34 -196q0 -113 -37 -209.5t-104.5 -166t-160 -109.5t-202.5 -40q-72 0 -136.5 17.5t-117.5 46.5l-101 -129l-122 98l100 131q-59 70 -93 161
t-34 200zM279 494q0 -63 13 -114.5t36 -92.5l403 520q-68 37 -145 37q-61 0 -116.5 -22.5t-98.5 -67.5t-67.5 -109.5t-24.5 -150.5zM442 176q61 -35 144 -35q61 0 116.5 22.5t98.5 67.5t67.5 111t24.5 152q0 59 -13.5 110t-35.5 92z" />
    <glyph glyph-name="ugrave" unicode="&#xf9;" horiz-adv-x="1159" 
d="M154 356v629h192v-598q0 -51 11.5 -96t38 -79t67.5 -53.5t102 -19.5q117 0 177.5 75t60.5 187v584h192v-803q0 -37 1 -70.5t3 -58.5q2 -29 7 -53h-189q-4 16 -7 55t-3 84q-47 -92 -129 -131t-168 -39t-152.5 30t-111.5 82t-68.5 122.5t-23.5 152.5zM268 1411h238
l178 -299h-160z" />
    <glyph glyph-name="uacute" unicode="&#xfa;" horiz-adv-x="1159" 
d="M154 356v629h192v-598q0 -51 11.5 -96t38 -79t67.5 -53.5t102 -19.5q117 0 177.5 75t60.5 187v584h192v-803q0 -37 1 -70.5t3 -58.5q2 -29 7 -53h-189q-4 16 -7 55t-3 84q-47 -92 -129 -131t-168 -39t-152.5 30t-111.5 82t-68.5 122.5t-23.5 152.5zM422 1112l180 299h238
l-256 -299h-162z" />
    <glyph glyph-name="ucircumflex" unicode="&#xfb;" horiz-adv-x="1159" 
d="M154 356v629h192v-598q0 -51 11.5 -96t38 -79t67.5 -53.5t102 -19.5q117 0 177.5 75t60.5 187v584h192v-803q0 -37 1 -70.5t3 -58.5q2 -29 7 -53h-189q-4 16 -7 55t-3 84q-47 -92 -129 -131t-168 -39t-152.5 30t-111.5 82t-68.5 122.5t-23.5 152.5zM567 1116l207 285h232
l206 -285h-180l-143 166l-144 -166h-178z" />
    <glyph glyph-name="udieresis" unicode="&#xfc;" horiz-adv-x="1159" 
d="M154 356v629h192v-598q0 -51 11.5 -96t38 -79t67.5 -53.5t102 -19.5q117 0 177.5 75t60.5 187v584h192v-803q0 -37 1 -70.5t3 -58.5q2 -29 7 -53h-189q-4 16 -7 55t-3 84q-47 -92 -129 -131t-168 -39t-152.5 30t-111.5 82t-68.5 122.5t-23.5 152.5zM252 1272
q0 49 33.5 84t83.5 35q51 0 85.5 -35t34.5 -84q0 -51 -34.5 -85t-85.5 -34q-49 0 -83 34t-34 85zM647 1272q0 49 34 84t85 35q49 0 84 -35t35 -84q0 -51 -35 -85t-84 -34q-51 0 -85 34t-34 85z" />
    <glyph glyph-name="yacute" unicode="&#xfd;" horiz-adv-x="1034" 
d="M0 985h221l311 -684l295 684h207l-641 -1397h-211l246 521zM381 1112l180 299h238l-256 -299h-162z" />
    <glyph glyph-name="thorn" unicode="&#xfe;" horiz-adv-x="1214" 
d="M164 -389v1374h18v467h193v-584q45 59 122.5 99.5t182.5 40.5q111 0 196 -40t141 -110t86 -164t30 -200q0 -111 -31 -205t-90.5 -165t-144.5 -111t-193 -40q-115 0 -197 47.5t-123 112.5v-522h-190zM352 494q0 -76 20.5 -140.5t59.5 -110.5t93.5 -72t119.5 -26
q68 0 121 26t91 72t58.5 110.5t20.5 140.5q0 74 -20.5 136t-57.5 108t-91 73t-122 27q-66 0 -120 -27t-93 -73t-59.5 -108t-20.5 -136z" />
    <glyph glyph-name="ydieresis" unicode="&#xff;" horiz-adv-x="1034" 
d="M0 985h221l311 -684l295 684h207l-641 -1397h-211l246 521zM201 1272q0 49 33.5 84t82.5 35q51 0 86 -35t35 -84q0 -51 -34.5 -85t-86.5 -34q-49 0 -82.5 34t-33.5 85zM596 1272q0 49 34 84t85 35q49 0 84 -35t35 -84q0 -51 -35 -85t-84 -34q-51 0 -85 34t-34 85z" />
    <glyph glyph-name="OE" unicode="&#x152;" horiz-adv-x="2455" 
d="M172 727q0 182 62.5 322.5t165 236.5t233.5 146.5t268 50.5q147 0 287.5 -58.5t245.5 -169.5v197h882v-186h-682v-447h619v-188h-619v-445h682v-186h-882v199q-104 -113 -244.5 -171.5t-288.5 -58.5q-137 0 -268 50.5t-233.5 146.5t-165 237.5t-62.5 323.5zM377 727
q0 -143 44 -250.5t116.5 -179.5t167 -107.5t196.5 -35.5q100 0 195.5 35.5t168 107.5t116.5 179.5t44 250.5t-44 250.5t-116.5 178.5t-168 106.5t-195.5 35.5q-102 0 -196.5 -35.5t-167 -106.5t-116.5 -178.5t-44 -250.5z" />
    <glyph glyph-name="oe" unicode="&#x153;" horiz-adv-x="1923" 
d="M90 494q0 113 37 208t104.5 164.5t159.5 109.5t203 40q133 0 239.5 -55.5t172.5 -153.5q66 98 166 153.5t212 55.5q113 0 202 -38t148.5 -105.5t91.5 -163t32 -209.5q0 -14 -1.5 -24.5t-1.5 -18.5q-2 -8 -2 -19h-741q2 -66 25.5 -120t63.5 -94t93.5 -62.5t114.5 -22.5
q119 0 182.5 57.5t91.5 141.5l168 -57q-20 -66 -61 -122.5t-98.5 -98.5t-129 -66.5t-153.5 -24.5q-123 0 -229.5 53.5t-175.5 153.5q-66 -96 -171.5 -151.5t-238.5 -55.5q-111 0 -203 40t-159.5 109.5t-104.5 166t-37 209.5zM287 494q0 -86 24.5 -152t67.5 -111t98 -67.5
t117 -22.5q61 0 116.5 22.5t98.5 67.5t67.5 111t24.5 152t-24.5 150.5t-67.5 109.5t-98.5 67.5t-116.5 22.5t-116.5 -22.5t-98.5 -67.5t-67.5 -109.5t-24.5 -150.5zM1118 594h539q-4 106 -72.5 179t-198.5 73q-61 0 -109 -21.5t-82 -57.5t-54.5 -81t-22.5 -92z" />
    <glyph glyph-name="Ydieresis" unicode="&#x178;" horiz-adv-x="1228" 
d="M0 1452h246l375 -647l374 647h234l-514 -827v-625h-201v625zM258 1667q0 51 35 86t86 35t86 -35t35 -86t-35 -86t-86 -35t-86 35t-35 86zM731 1667q0 51 35 86t86 35t86 -35t35 -86t-35 -86t-86 -35t-86 35t-35 86z" />
    <glyph glyph-name="circumflex" unicode="&#x2c6;" horiz-adv-x="788" 
d="M72 1116l207 285h231l207 -285h-180l-144 166l-143 -166h-178z" />
    <glyph glyph-name="tilde" unicode="&#x2dc;" horiz-adv-x="772" 
d="M72 1135v32q0 115 53 170.5t139 55.5q43 0 75 -14.5t62 -32.5l29 -19q20 -12 36.5 -20.5t37.5 -8.5q29 0 45 20.5t14 70.5h137v-33q0 -115 -52 -170.5t-138 -55.5q-43 0 -75 14.5t-62 33.5l-29 18q-20 12 -36.5 20.5t-37.5 8.5q-29 0 -45 -20.5t-14 -69.5h-139z" />
    <glyph glyph-name="uni2000" unicode="&#x2000;" horiz-adv-x="901" 
 />
    <glyph glyph-name="uni2001" unicode="&#x2001;" horiz-adv-x="1802" 
 />
    <glyph glyph-name="uni2002" unicode="&#x2002;" horiz-adv-x="901" 
 />
    <glyph glyph-name="uni2003" unicode="&#x2003;" horiz-adv-x="1802" 
 />
    <glyph glyph-name="uni2004" unicode="&#x2004;" horiz-adv-x="600" 
 />
    <glyph glyph-name="uni2005" unicode="&#x2005;" horiz-adv-x="450" 
 />
    <glyph glyph-name="uni2006" unicode="&#x2006;" horiz-adv-x="299" 
 />
    <glyph glyph-name="uni2007" unicode="&#x2007;" horiz-adv-x="299" 
 />
    <glyph glyph-name="uni2008" unicode="&#x2008;" horiz-adv-x="225" 
 />
    <glyph glyph-name="uni2009" unicode="&#x2009;" horiz-adv-x="360" 
 />
    <glyph glyph-name="uni200A" unicode="&#x200a;" horiz-adv-x="98" 
 />
    <glyph glyph-name="uni2010" unicode="&#x2010;" horiz-adv-x="759" 
d="M102 504v168h555v-168h-555z" />
    <glyph glyph-name="uni2011" unicode="&#x2011;" horiz-adv-x="759" 
d="M102 504v168h555v-168h-555z" />
    <glyph glyph-name="figuredash" unicode="&#x2012;" horiz-adv-x="759" 
d="M102 504v168h555v-168h-555z" />
    <glyph glyph-name="endash" unicode="&#x2013;" horiz-adv-x="1253" 
d="M102 504v168h1049v-168h-1049z" />
    <glyph glyph-name="emdash" unicode="&#x2014;" horiz-adv-x="2054" 
d="M51 504v168h1952v-168h-1952z" />
    <glyph glyph-name="quoteleft" unicode="&#x2018;" horiz-adv-x="331" 
d="M20 1145q0 82 26 141.5t66 98t89 57t94 20.5v-96q-37 -4 -66.5 -19.5t-50 -39t-32 -52t-11.5 -55.5q4 4 18.5 8t24.5 4q51 0 87 -31.5t36 -93.5q0 -51 -37 -85.5t-94 -34.5q-55 0 -102.5 41t-47.5 137z" />
    <glyph glyph-name="quoteright" unicode="&#x2019;" horiz-adv-x="342" 
d="M29 1343q0 51 38.5 89t98.5 38q63 0 109.5 -44t46.5 -142q0 -94 -27 -161.5t-69 -111.5t-92 -66.5t-95 -26.5v98q72 14 114 75.5t44 131.5q-4 -4 -14.5 -7.5t-26.5 -3.5q-53 0 -90 35t-37 96z" />
    <glyph glyph-name="quotesinglbase" unicode="&#x201a;" horiz-adv-x="464" 
d="M90 125q0 51 39 89t98 38q63 0 109.5 -44t46.5 -142q0 -94 -26.5 -162t-68.5 -112t-92.5 -66.5t-95.5 -26.5v98q72 14 114 75.5t44 131.5q-4 -4 -14.5 -7t-26.5 -3q-53 0 -90 35t-37 96z" />
    <glyph glyph-name="quotedblleft" unicode="&#x201c;" horiz-adv-x="671" 
d="M20 1147q0 82 25 139t62.5 93t85 53.5t90.5 19.5v-92q-72 -6 -110 -55.5t-40 -100.5q4 4 14.5 7t26.5 3q47 0 82 -31.5t35 -90.5q0 -47 -36 -83t-91 -36q-59 0 -101.5 41t-42.5 133zM371 1147q0 82 24.5 139t62.5 93t85 53.5t90 19.5v-92q-72 -6 -110 -55.5t-40 -100.5
q4 4 14.5 7t26.5 3q47 0 82 -31.5t35 -90.5q0 -47 -36 -83t-91 -36q-59 0 -101 41t-42 133z" />
    <glyph glyph-name="quotedblright" unicode="&#x201d;" horiz-adv-x="684" 
d="M31 1341q0 51 37.5 87t95.5 36q59 0 103 -42t44 -136q0 -92 -25.5 -156.5t-65.5 -106.5t-88 -63.5t-93 -27.5v96q35 6 62.5 25.5t48 47t32 60.5t11.5 66q-4 -4 -14.5 -7t-26.5 -3q-49 0 -85 32.5t-36 91.5zM381 1341q0 51 38 87t95 36q59 0 103.5 -42t44.5 -136
q0 -92 -26 -156.5t-66 -106.5t-88 -63.5t-93 -27.5v96q35 6 62.5 25.5t48 47t32 60.5t11.5 66q-4 -4 -14.5 -7t-26.5 -3q-49 0 -85 32.5t-36 91.5z" />
    <glyph glyph-name="quotedblbase" unicode="&#x201e;" horiz-adv-x="806" 
d="M92 119q0 51 38 87t95 36q59 0 103.5 -42t44.5 -137q0 -92 -25.5 -156.5t-65.5 -106.5t-88.5 -63.5t-93.5 -27.5v96q35 6 62.5 25.5t48 47.5t32 60.5t11.5 65.5q-4 -4 -14.5 -7t-26.5 -3q-49 0 -85 33t-36 92zM442 119q0 51 38 87t95 36q59 0 103.5 -42t44.5 -137
q0 -92 -25.5 -156.5t-65.5 -106.5t-88 -63.5t-93 -27.5v96q35 6 62.5 25.5t48 47.5t31.5 60.5t11 65.5q-4 -4 -14 -7t-27 -3q-49 0 -85 33t-36 92z" />
    <glyph glyph-name="bullet" unicode="&#x2022;" horiz-adv-x="1155" 
d="M154 592q0 88 33.5 166t91 135t134 91t165.5 34q88 0 164.5 -34t134 -91t91 -135t33.5 -166q0 -86 -33.5 -164t-91 -135t-134 -91t-164.5 -34t-165 34t-134.5 91t-91 135t-33.5 164z" />
    <glyph glyph-name="ellipsis" unicode="&#x2026;" horiz-adv-x="1613" 
d="M133 121q0 55 38 94t93 39t94 -39t39 -94t-39 -93t-94 -38t-93 38t-38 93zM676 121q0 55 38 94t93 39t94 -39t39 -94t-39 -93t-94 -38t-93 38t-38 93zM1217 121q0 55 37.5 94t93.5 39q55 0 94 -39t39 -94t-39 -93t-94 -38t-93 38t-38 93z" />
    <glyph glyph-name="uni202F" unicode="&#x202f;" horiz-adv-x="360" 
 />
    <glyph glyph-name="guilsinglleft" unicode="&#x2039;" horiz-adv-x="565" 
d="M61 594l273 391h190l-268 -391l268 -391h-190z" />
    <glyph glyph-name="guilsinglright" unicode="&#x203a;" horiz-adv-x="565" 
d="M41 203l268 391l-268 391h190l273 -391l-273 -391h-190z" />
    <glyph glyph-name="uni205F" unicode="&#x205f;" horiz-adv-x="450" 
 />
    <glyph glyph-name="Euro" unicode="&#x20ac;" horiz-adv-x="1462" 
d="M92 414v164h162q-4 23 -4 43v86q0 20 4 41h-162v159h195q37 111 103.5 196t151.5 141t182 85t196 29q104 0 192 -23.5t158 -72.5l-82 -158q-55 41 -123 59.5t-145 18.5q-139 0 -255 -67.5t-176 -207.5h605l-80 -159h-563q-2 -20 -3.5 -40t-1.5 -42q0 -23 1.5 -45.5
t3.5 -42.5h489l-80 -164h-366q57 -135 170.5 -202t248.5 -67q92 0 171 29t135 84l100 -143q-76 -66 -179.5 -106t-226.5 -40q-98 0 -193 29t-179 85t-149.5 139t-102.5 192h-197z" />
    <glyph glyph-name="trademark" unicode="&#x2122;" horiz-adv-x="1718" 
d="M72 1313v139h614v-139h-229v-608h-156v608h-229zM815 705v747h203l219 -520l219 520h191v-747h-148v477l-207 -477h-121l-200 471v-471h-156z" />
    <glyph glyph-name="uniE000" unicode="&#xe000;" horiz-adv-x="985" 
d="M0 985h985v-985h-985v985z" />
    <glyph glyph-name="uniFB01" unicode="&#xfb01;" horiz-adv-x="1236" 
d="M41 811v174h176v111q0 80 25.5 147.5t72.5 114.5t116 73.5t155 26.5q33 0 51 -3t25 -3v-178q-16 4 -56 4q-41 0 -75.5 -7t-60.5 -27.5t-40 -56.5t-14 -93v-109h657v-985h-190v817h-224v-6h-243v-811h-199v811h-176zM842 1333q0 57 40 97t97 40t97 -39.5t40 -97.5
q0 -57 -40 -97t-97 -40t-97 40t-40 97z" />
    <glyph glyph-name="uniFB02" unicode="&#xfb02;" horiz-adv-x="1243" 
d="M41 811v174h176v111q0 80 25.5 147.5t72.5 114.5t116 73.5t155 26.5q33 0 51 -3t25 -3v-178q-16 4 -56 4q-41 0 -75.5 -7t-60.5 -27.5t-40 -56.5t-14 -93v-109h461v467h192v-1452h-192v815h-218v-4h-243v-811h-199v811h-176z" />
    <glyph glyph-name="uniFB03" unicode="&#xfb03;" horiz-adv-x="1884" 
d="M41 811v174h176v111q0 80 25.5 147.5t72.5 114.5t116 73.5t155 26.5q33 0 51 -3t25 -3v-178q-16 4 -56 4q-41 0 -75.5 -7t-60.5 -27.5t-40 -56.5t-14 -93v-109h448v111q0 80 25.5 147.5t73 114.5t116 73.5t154.5 26.5q33 0 51.5 -3t24.5 -3v-178q-16 4 -56 4
q-41 0 -75.5 -7t-60 -27.5t-40 -56.5t-14.5 -93v-109h657v-985h-190v815h-223v-4h-244v-811h-199v811h-176v4h-29v-4h-243v-811h-199v811h-176zM1489 1333q0 57 40 97t97 40t97 -39.5t40 -97.5q0 -57 -40 -97t-97 -40t-97 40t-40 97z" />
    <glyph glyph-name="uniFB04" unicode="&#xfb04;" horiz-adv-x="1859" 
d="M41 811v174h176v111q0 80 25.5 147.5t72.5 114.5t116 73.5t155 26.5q33 0 51 -3t25 -3v-178q-16 4 -56 4q-41 0 -75.5 -7t-60.5 -27.5t-40 -56.5t-14 -93v-109h432v111q0 80 25.5 147.5t72.5 114.5t115.5 73.5t155.5 26.5q33 0 51 -3t24 -3v-178q-16 4 -55 4
q-41 0 -76 -7t-60.5 -27.5t-39.5 -56.5t-14 -93v-109h446v467h193v-1452h-193v815h-203v-4h-243v-811h-199v811h-176v4h-13v-4h-243v-811h-199v811h-176z" />
  </font>
</defs>
</svg>
